<?xml version="1.0" encoding="UTF-8"?>
<svg width="1000" height="1000" viewBox="0 0 1000 1000" version="1.1" xmlns="http://www.w3.org/2000/svg" xmlns:xlink="http://www.w3.org/1999/xlink">
 <path d="M0,0 l50,0 l0,50 l-50,0 Z M0,0" fill="rgb(0,0,0)" transform="matrix(1,0,0,-1,0,1000)"/>
 <path d="M135.36,64.64 c19.53,19.53,19.53,51.18,0,70.71 c-19.53,19.53,-51.18,19.53,-70.71,0 c-19.53,-19.53,-19.53,-51.18,0,-70.71 c19.53,-19.53,51.18,-19.53,70.71,0 Z M135.36,64.64" fill="rgb(255,0,0)" transform="matrix(1,0,0,-1,0,1000)"/>
 <path d="M0,0 l47.5,0 l0,50 l-47.5,0 Z M0,0" fill="rgb(0,0,0)" transform="matrix(1,0,0,-1,100.0,1000.0)"/>
 <path d="M128.59,64.64 c18.55,19.53,18.55,51.18,0,70.71 c-18.55,19.53,-48.63,19.53,-67.18,0 c-18.55,-19.53,-18.55,-51.18,-0.0,-70.71 c18.55,-19.53,48.63,-19.53,67.18,0 Z M128.59,64.64" fill="rgb(255,0,0)" transform="matrix(1,0,0,-1,100.0,1000.0)"/>
 <path d="M0,0 l45,0 l0,50 l-45,0 Z M0,0" fill="rgb(0,0,0)" transform="matrix(1,0,0,-1,195.0,1000.0)"/>
 <path d="M121.82,64.64 c17.57,19.53,17.57,51.18,0,70.71 c-17.57,19.53,-46.07,19.53,-63.64,0 c-17.57,-19.53,-17.57,-51.18,-0.0,-70.71 c17.57,-19.53,46.07,-19.53,63.64,0 Z M121.82,64.64" fill="rgb(255,0,0)" transform="matrix(1,0,0,-1,195.0,1000.0)"/>
 <path d="M0,0 l42.5,0 l0,50 l-42.5,0 Z M0,0" fill="rgb(0,0,0)" transform="matrix(1,0,0,-1,285.0,1000.0)"/>
 <path d="M115.05,64.64 c16.6,19.53,16.6,51.18,0,70.71 c-16.6,19.53,-43.51,19.53,-60.1,0 c-16.6,-19.53,-16.6,-51.18,-0.0,-70.71 c16.6,-19.53,43.51,-19.53,60.1,0 Z M115.05,64.64" fill="rgb(255,0,0)" transform="matrix(1,0,0,-1,285.0,1000.0)"/>
 <path d="M0,0 l40,0 l0,50 l-40,0 Z M0,0" fill="rgb(0,0,0)" transform="matrix(1,0,0,-1,370.0,1000.0)"/>
 <path d="M108.28,64.64 c15.62,19.53,15.62,51.18,0,70.71 c-15.62,19.53,-40.95,19.53,-56.57,0 c-15.62,-19.53,-15.62,-51.18,-0.0,-70.71 c15.62,-19.53,40.95,-19.53,56.57,0 Z M108.28,64.64" fill="rgb(255,0,0)" transform="matrix(1,0,0,-1,370.0,1000.0)"/>
 <path d="M0,0 l37.5,0 l0,50 l-37.5,0 Z M0,0" fill="rgb(0,0,0)" transform="matrix(1,0,0,-1,450.0,1000.0)"/>
 <path d="M101.52,64.64 c14.64,19.53,14.64,51.18,0,70.71 c-14.64,19.53,-38.39,19.53,-53.03,0 c-14.64,-19.53,-14.64,-51.18,0,-70.71 c14.64,-19.53,38.39,-19.53,53.03,0 Z M101.52,64.64" fill="rgb(255,0,0)" transform="matrix(1,0,0,-1,450.0,1000.0)"/>
 <path d="M0,0 l35,0 l0,50 l-35,0 Z M0,0" fill="rgb(0,0,0)" transform="matrix(1,0,0,-1,525.0,1000.0)"/>
 <path d="M94.75,64.64 c13.67,19.53,13.67,51.18,0,70.71 c-13.67,19.53,-35.83,19.53,-49.5,0 c-13.67,-19.53,-13.67,-51.18,0,-70.71 c13.67,-19.53,35.83,-19.53,49.5,0 Z M94.75,64.64" fill="rgb(255,0,0)" transform="matrix(1,0,0,-1,525.0,1000.0)"/>
 <path d="M0,0 l32.5,0 l0,50 l-32.5,0 Z M0,0" fill="rgb(0,0,0)" transform="matrix(1,0,0,-1,595.0,1000.0)"/>
 <path d="M87.98,64.64 c12.69,19.53,12.69,51.18,0,70.71 c-12.69,19.53,-33.27,19.53,-45.96,0 c-12.69,-19.53,-12.69,-51.18,0,-70.71 c12.69,-19.53,33.27,-19.53,45.96,0 Z M87.98,64.64" fill="rgb(255,0,0)" transform="matrix(1,0,0,-1,595.0,1000.0)"/>
 <path d="M0,0 l30,0 l0,50 l-30,0 Z M0,0" fill="rgb(0,0,0)" transform="matrix(1,0,0,-1,660.0,1000.0)"/>
 <path d="M81.21,64.64 c11.72,19.53,11.72,51.18,0,70.71 c-11.72,19.53,-30.71,19.53,-42.43,0 c-11.72,-19.53,-11.72,-51.18,0,-70.71 c11.72,-19.53,30.71,-19.53,42.43,0 Z M81.21,64.64" fill="rgb(255,0,0)" transform="matrix(1,0,0,-1,660.0,1000.0)"/>
 <path d="M0,0 l27.5,0 l0,50 l-27.5,0 Z M0,0" fill="rgb(0,0,0)" transform="matrix(1,0,0,-1,720.0,1000.0)"/>
 <path d="M74.45,64.64 c10.74,19.53,10.74,51.18,0,70.71 c-10.74,19.53,-28.15,19.53,-38.89,0 c-10.74,-19.53,-10.74,-51.18,0,-70.71 c10.74,-19.53,28.15,-19.53,38.89,0 Z M74.45,64.64" fill="rgb(255,0,0)" transform="matrix(1,0,0,-1,720.0,1000.0)"/>
 <path d="M0,0 l25,0 l0,50 l-25,0 Z M0,0" fill="rgb(0,0,0)" transform="matrix(1,0,0,-1,0.0,900.0)"/>
 <path d="M67.68,64.64 c9.76,19.53,9.76,51.18,0,70.71 c-9.76,19.53,-25.59,19.53,-35.36,0 c-9.76,-19.53,-9.76,-51.18,0,-70.71 c9.76,-19.53,25.59,-19.53,35.36,0 Z M67.68,64.64" fill="rgb(255,0,0)" transform="matrix(1,0,0,-1,0.0,900.0)"/>
 <path d="M0,0 l22.5,0 l0,50 l-22.5,0 Z M0,0" fill="rgb(0,0,0)" transform="matrix(1,0,0,-1,50.0,900.0)"/>
 <path d="M60.91,64.64 c8.79,19.53,8.79,51.18,0,70.71 c-8.79,19.53,-23.03,19.53,-31.82,0 c-8.79,-19.53,-8.79,-51.18,-0.0,-70.71 c8.79,-19.53,23.03,-19.53,31.82,0 Z M60.91,64.64" fill="rgb(255,0,0)" transform="matrix(1,0,0,-1,50.0,900.0)"/>
 <path d="M0,0 l20,0 l0,50 l-20,0 Z M0,0" fill="rgb(0,0,0)" transform="matrix(1,0,0,-1,95.0,900.0)"/>
 <path d="M54.14,64.64 c7.81,19.53,7.81,51.18,0,70.71 c-7.81,19.53,-20.47,19.53,-28.28,0 c-7.81,-19.53,-7.81,-51.18,-0.0,-70.71 c7.81,-19.53,20.47,-19.53,28.28,0 Z M54.14,64.64" fill="rgb(255,0,0)" transform="matrix(1,0,0,-1,95.0,900.0)"/>
 <path d="M0,0 l17.5,0 l0,50 l-17.5,0 Z M0,0" fill="rgb(0,0,0)" transform="matrix(1,0,0,-1,135.0,900.0)"/>
 <path d="M47.37,64.64 c6.83,19.53,6.83,51.18,0,70.71 c-6.83,19.53,-17.91,19.53,-24.75,0 c-6.83,-19.53,-6.83,-51.18,0,-70.71 c6.83,-19.53,17.91,-19.53,24.75,0 Z M47.37,64.64" fill="rgb(255,0,0)" transform="matrix(1,0,0,-1,135.0,900.0)"/>
 <path d="M0,0 l15,0 l0,50 l-15,0 Z M0,0" fill="rgb(0,0,0)" transform="matrix(1,0,0,-1,170.0,900.0)"/>
 <path d="M40.61,64.64 c5.86,19.53,5.86,51.18,0,70.71 c-5.86,19.53,-15.36,19.53,-21.21,0 c-5.86,-19.53,-5.86,-51.18,0,-70.71 c5.86,-19.53,15.36,-19.53,21.21,0 Z M40.61,64.64" fill="rgb(255,0,0)" transform="matrix(1,0,0,-1,170.0,900.0)"/>
 <path d="M0,0 l12.5,0 l0,50 l-12.5,0 Z M0,0" fill="rgb(0,0,0)" transform="matrix(1,0,0,-1,200.0,900.0)"/>
 <path d="M33.84,64.64 c4.88,19.53,4.88,51.18,0,70.71 c-4.88,19.53,-12.8,19.53,-17.68,0 c-4.88,-19.53,-4.88,-51.18,0,-70.71 c4.88,-19.53,12.8,-19.53,17.68,0 Z M33.84,64.64" fill="rgb(255,0,0)" transform="matrix(1,0,0,-1,200.0,900.0)"/>
 <path d="M0,0 l10,0 l0,50 l-10,0 Z M0,0" fill="rgb(0,0,0)" transform="matrix(1,0,0,-1,225.0,900.0)"/>
 <path d="M27.07,64.64 c3.91,19.53,3.91,51.18,0,70.71 c-3.91,19.53,-10.24,19.53,-14.14,0 c-3.91,-19.53,-3.91,-51.18,-0.0,-70.71 c3.91,-19.53,10.24,-19.53,14.14,0 Z M27.07,64.64" fill="rgb(255,0,0)" transform="matrix(1,0,0,-1,225.0,900.0)"/>
 <path d="M0,0 l7.5,0 l0,50 l-7.5,0 Z M0,0" fill="rgb(0,0,0)" transform="matrix(1,0,0,-1,245.0,900.0)"/>
 <path d="M20.3,64.64 c2.93,19.53,2.93,51.18,0,70.71 c-2.93,19.53,-7.68,19.53,-10.61,0 c-2.93,-19.53,-2.93,-51.18,0,-70.71 c2.93,-19.53,7.68,-19.53,10.61,0 Z M20.3,64.64" fill="rgb(255,0,0)" transform="matrix(1,0,0,-1,245.0,900.0)"/>
 <path d="M0,0 l5,0 l0,50 l-5,0 Z M0,0" fill="rgb(0,0,0)" transform="matrix(1,0,0,-1,260.0,900.0)"/>
 <path d="M13.54,64.64 c1.95,19.53,1.95,51.18,0,70.71 c-1.95,19.53,-5.12,19.53,-7.07,0 c-1.95,-19.53,-1.95,-51.18,-0.0,-70.71 c1.95,-19.53,5.12,-19.53,7.07,0 Z M13.54,64.64" fill="rgb(255,0,0)" transform="matrix(1,0,0,-1,260.0,900.0)"/>
 <path d="M0,0 l2.5,0 l0,50 l-2.5,0 Z M0,0" fill="rgb(0,0,0)" transform="matrix(1,0,0,-1,270.0,900.0)"/>
 <path d="M6.77,64.64 c0.98,19.53,0.98,51.18,0,70.71 c-0.98,19.53,-2.56,19.53,-3.54,0 c-0.98,-19.53,-0.98,-51.18,-0.0,-70.71 c0.98,-19.53,2.56,-19.53,3.54,0 Z M6.77,64.64" fill="rgb(255,0,0)" transform="matrix(1,0,0,-1,270.0,900.0)"/>
 <path d="M0,0 l0,0 l0,50 l0,0 Z M0,0" fill="rgb(0,0,0)" transform="matrix(1,0,0,-1,0.0,800.0)"/>
 <path d="M0,64.64 c0,19.53,0,51.18,0,70.71 c0,19.53,0,19.53,0,0 c0,-19.53,0,-51.18,0,-70.71 c0,-19.53,0,-19.53,0,0 Z M0,64.64" fill="rgb(255,0,0)" transform="matrix(1,0,0,-1,0.0,800.0)"/>
 <path d="M0,0 l-2.5,0 l0,50 l2.5,0 Z M0,0" fill="rgb(0,0,0)" transform="matrix(1,0,0,-1,0.0,800.0)"/>
 <path d="M-6.77,64.64 c-0.98,19.53,-0.98,51.18,0,70.71 c0.98,19.53,2.56,19.53,3.54,0 c0.98,-19.53,0.98,-51.18,0.0,-70.71 c-0.98,-19.53,-2.56,-19.53,-3.54,0 Z M-6.77,64.64" fill="rgb(255,0,0)" transform="matrix(1,0,0,-1,0.0,800.0)"/>
 <path d="M0,0 l-5,0 l0,50 l5,0 Z M0,0" fill="rgb(0,0,0)" transform="matrix(1,0,0,-1,-5.0,800.0)"/>
 <path d="M-13.54,64.64 c-1.95,19.53,-1.95,51.18,0,70.71 c1.95,19.53,5.12,19.53,7.07,0 c1.95,-19.53,1.95,-51.18,0.0,-70.71 c-1.95,-19.53,-5.12,-19.53,-7.07,0 Z M-13.54,64.64" fill="rgb(255,0,0)" transform="matrix(1,0,0,-1,-5.0,800.0)"/>
 <path d="M0,0 l-7.5,0 l0,50 l7.5,0 Z M0,0" fill="rgb(0,0,0)" transform="matrix(1,0,0,-1,-15.0,800.0)"/>
 <path d="M-20.3,64.64 c-2.93,19.53,-2.93,51.18,0,70.71 c2.93,19.53,7.68,19.53,10.61,0 c2.93,-19.53,2.93,-51.18,0,-70.71 c-2.93,-19.53,-7.68,-19.53,-10.61,0 Z M-20.3,64.64" fill="rgb(255,0,0)" transform="matrix(1,0,0,-1,-15.0,800.0)"/>
 <path d="M0,0 l-10,0 l0,50 l10,0 Z M0,0" fill="rgb(0,0,0)" transform="matrix(1,0,0,-1,-30.0,800.0)"/>
 <path d="M-27.07,64.64 c-3.91,19.53,-3.91,51.18,0,70.71 c3.91,19.53,10.24,19.53,14.14,0 c3.91,-19.53,3.91,-51.18,0.0,-70.71 c-3.91,-19.53,-10.24,-19.53,-14.14,0 Z M-27.07,64.64" fill="rgb(255,0,0)" transform="matrix(1,0,0,-1,-30.0,800.0)"/>
 <path d="M0,0 l-12.5,0 l0,50 l12.5,0 Z M0,0" fill="rgb(0,0,0)" transform="matrix(1,0,0,-1,-50.0,800.0)"/>
 <path d="M-33.84,64.64 c-4.88,19.53,-4.88,51.18,0,70.71 c4.88,19.53,12.8,19.53,17.68,0 c4.88,-19.53,4.88,-51.18,0,-70.71 c-4.88,-19.53,-12.8,-19.53,-17.68,0 Z M-33.84,64.64" fill="rgb(255,0,0)" transform="matrix(1,0,0,-1,-50.0,800.0)"/>
 <path d="M0,0 l-15,0 l0,50 l15,0 Z M0,0" fill="rgb(0,0,0)" transform="matrix(1,0,0,-1,-75.0,800.0)"/>
 <path d="M-40.61,64.64 c-5.86,19.53,-5.86,51.18,0,70.71 c5.86,19.53,15.36,19.53,21.21,0 c5.86,-19.53,5.86,-51.18,0,-70.71 c-5.86,-19.53,-15.36,-19.53,-21.21,0 Z M-40.61,64.64" fill="rgb(255,0,0)" transform="matrix(1,0,0,-1,-75.0,800.0)"/>
 <path d="M0,0 l-17.5,0 l0,50 l17.5,0 Z M0,0" fill="rgb(0,0,0)" transform="matrix(1,0,0,-1,-105.0,800.0)"/>
 <path d="M-47.37,64.64 c-6.83,19.53,-6.83,51.18,0,70.71 c6.83,19.53,17.91,19.53,24.75,0 c6.83,-19.53,6.83,-51.18,0,-70.71 c-6.83,-19.53,-17.91,-19.53,-24.75,0 Z M-47.37,64.64" fill="rgb(255,0,0)" transform="matrix(1,0,0,-1,-105.0,800.0)"/>
 <path d="M0,0 l-20,0 l0,50 l20,0 Z M0,0" fill="rgb(0,0,0)" transform="matrix(1,0,0,-1,-140.0,800.0)"/>
 <path d="M-54.14,64.64 c-7.81,19.53,-7.81,51.18,0,70.71 c7.81,19.53,20.47,19.53,28.28,0 c7.81,-19.53,7.81,-51.18,0.0,-70.71 c-7.81,-19.53,-20.47,-19.53,-28.28,0 Z M-54.14,64.64" fill="rgb(255,0,0)" transform="matrix(1,0,0,-1,-140.0,800.0)"/>
 <path d="M0,0 l-22.5,0 l0,50 l22.5,0 Z M0,0" fill="rgb(0,0,0)" transform="matrix(1,0,0,-1,-180.0,800.0)"/>
 <path d="M-60.91,64.64 c-8.79,19.53,-8.79,51.18,0,70.71 c8.79,19.53,23.03,19.53,31.82,0 c8.79,-19.53,8.79,-51.18,0.0,-70.71 c-8.79,-19.53,-23.03,-19.53,-31.82,0 Z M-60.91,64.64" fill="rgb(255,0,0)" transform="matrix(1,0,0,-1,-180.0,800.0)"/>
 <path d="M0,0 l-25,0 l0,50 l25,0 Z M0,0" fill="rgb(0,0,0)" transform="matrix(1,0,0,-1,0.0,700.0)"/>
 <path d="M-67.68,64.64 c-9.76,19.53,-9.76,51.18,0,70.71 c9.76,19.53,25.59,19.53,35.36,0 c9.76,-19.53,9.76,-51.18,0,-70.71 c-9.76,-19.53,-25.59,-19.53,-35.36,0 Z M-67.68,64.64" fill="rgb(255,0,0)" transform="matrix(1,0,0,-1,0.0,700.0)"/>
 <path d="M0,0 l-27.5,0 l0,50 l27.5,0 Z M0,0" fill="rgb(0,0,0)" transform="matrix(1,0,0,-1,-50.0,700.0)"/>
 <path d="M-74.45,64.64 c-10.74,19.53,-10.74,51.18,0,70.71 c10.74,19.53,28.15,19.53,38.89,0 c10.74,-19.53,10.74,-51.18,0,-70.71 c-10.74,-19.53,-28.15,-19.53,-38.89,0 Z M-74.45,64.64" fill="rgb(255,0,0)" transform="matrix(1,0,0,-1,-50.0,700.0)"/>
 <path d="M0,0 l-30,0 l0,50 l30,0 Z M0,0" fill="rgb(0,0,0)" transform="matrix(1,0,0,-1,-105.0,700.0)"/>
 <path d="M-81.21,64.64 c-11.72,19.53,-11.72,51.18,0,70.71 c11.72,19.53,30.71,19.53,42.43,0 c11.72,-19.53,11.72,-51.18,0,-70.71 c-11.72,-19.53,-30.71,-19.53,-42.43,0 Z M-81.21,64.64" fill="rgb(255,0,0)" transform="matrix(1,0,0,-1,-105.0,700.0)"/>
 <path d="M0,0 l-32.5,0 l0,50 l32.5,0 Z M0,0" fill="rgb(0,0,0)" transform="matrix(1,0,0,-1,-165.0,700.0)"/>
 <path d="M-87.98,64.64 c-12.69,19.53,-12.69,51.18,0,70.71 c12.69,19.53,33.27,19.53,45.96,0 c12.69,-19.53,12.69,-51.18,0,-70.71 c-12.69,-19.53,-33.27,-19.53,-45.96,0 Z M-87.98,64.64" fill="rgb(255,0,0)" transform="matrix(1,0,0,-1,-165.0,700.0)"/>
 <path d="M0,0 l-35,0 l0,50 l35,0 Z M0,0" fill="rgb(0,0,0)" transform="matrix(1,0,0,-1,-230.0,700.0)"/>
 <path d="M-94.75,64.64 c-13.67,19.53,-13.67,51.18,0,70.71 c13.67,19.53,35.83,19.53,49.5,0 c13.67,-19.53,13.67,-51.18,0,-70.71 c-13.67,-19.53,-35.83,-19.53,-49.5,0 Z M-94.75,64.64" fill="rgb(255,0,0)" transform="matrix(1,0,0,-1,-230.0,700.0)"/>
 <path d="M0,0 l-37.5,0 l0,50 l37.5,0 Z M0,0" fill="rgb(0,0,0)" transform="matrix(1,0,0,-1,-300.0,700.0)"/>
 <path d="M-101.52,64.64 c-14.64,19.53,-14.64,51.18,0,70.71 c14.64,19.53,38.39,19.53,53.03,0 c14.64,-19.53,14.64,-51.18,0,-70.71 c-14.64,-19.53,-38.39,-19.53,-53.03,0 Z M-101.52,64.64" fill="rgb(255,0,0)" transform="matrix(1,0,0,-1,-300.0,700.0)"/>
 <path d="M0,0 l-40,0 l0,50 l40,0 Z M0,0" fill="rgb(0,0,0)" transform="matrix(1,0,0,-1,-375.0,700.0)"/>
 <path d="M-108.28,64.64 c-15.62,19.53,-15.62,51.18,0,70.71 c15.62,19.53,40.95,19.53,56.57,0 c15.62,-19.53,15.62,-51.18,0.0,-70.71 c-15.62,-19.53,-40.95,-19.53,-56.57,0 Z M-108.28,64.64" fill="rgb(255,0,0)" transform="matrix(1,0,0,-1,-375.0,700.0)"/>
 <path d="M0,0 l-42.5,0 l0,50 l42.5,0 Z M0,0" fill="rgb(0,0,0)" transform="matrix(1,0,0,-1,-455.0,700.0)"/>
 <path d="M-115.05,64.64 c-16.6,19.53,-16.6,51.18,0,70.71 c16.6,19.53,43.51,19.53,60.1,0 c16.6,-19.53,16.6,-51.18,0.0,-70.71 c-16.6,-19.53,-43.51,-19.53,-60.1,0 Z M-115.05,64.64" fill="rgb(255,0,0)" transform="matrix(1,0,0,-1,-455.0,700.0)"/>
 <path d="M0,0 l-45,0 l0,50 l45,0 Z M0,0" fill="rgb(0,0,0)" transform="matrix(1,0,0,-1,-540.0,700.0)"/>
 <path d="M-121.82,64.64 c-17.57,19.53,-17.57,51.18,0,70.71 c17.57,19.53,46.07,19.53,63.64,0 c17.57,-19.53,17.57,-51.18,0.0,-70.71 c-17.57,-19.53,-46.07,-19.53,-63.64,0 Z M-121.82,64.64" fill="rgb(255,0,0)" transform="matrix(1,0,0,-1,-540.0,700.0)"/>
 <path d="M0,0 l-47.5,0 l0,50 l47.5,0 Z M0,0" fill="rgb(0,0,0)" transform="matrix(1,0,0,-1,-630.0,700.0)"/>
 <path d="M-128.59,64.64 c-18.55,19.53,-18.55,51.18,0,70.71 c18.55,19.53,48.63,19.53,67.18,0 c18.55,-19.53,18.55,-51.18,0.0,-70.71 c-18.55,-19.53,-48.63,-19.53,-67.18,0 Z M-128.59,64.64" fill="rgb(255,0,0)" transform="matrix(1,0,0,-1,-630.0,700.0)"/>
 <path d="M0,0 l-50,0 l0,50 l50,0 Z M0,0" fill="rgb(0,0,0)" transform="matrix(1,0,0,-1,0.0,600.0)"/>
 <path d="M-135.36,64.64 c-19.53,19.53,-19.53,51.18,0,70.71 c19.53,19.53,51.18,19.53,70.71,0 c19.53,-19.53,19.53,-51.18,0,-70.71 c-19.53,-19.53,-51.18,-19.53,-70.71,0 Z M-135.36,64.64" fill="rgb(255,0,0)" transform="matrix(1,0,0,-1,0.0,600.0)"/>
 <path d="M0,0 l-52.5,0 l0,50 l52.5,0 Z M0,0" fill="rgb(0,0,0)" transform="matrix(1,0,0,-1,-100.0,600.0)"/>
 <path d="M-142.12,64.64 c-20.5,19.53,-20.5,51.18,0,70.71 c20.5,19.53,53.74,19.53,74.25,0 c20.5,-19.53,20.5,-51.18,0.0,-70.71 c-20.5,-19.53,-53.74,-19.53,-74.25,0 Z M-142.12,64.64" fill="rgb(255,0,0)" transform="matrix(1,0,0,-1,-100.0,600.0)"/>
 <path d="M0,0 l-55,0 l0,50 l55,0 Z M0,0" fill="rgb(0,0,0)" transform="matrix(1,0,0,-1,-205.0,600.0)"/>
 <path d="M-148.89,64.64 c-21.48,19.53,-21.48,51.18,0,70.71 c21.48,19.53,56.3,19.53,77.78,0 c21.48,-19.53,21.48,-51.18,0,-70.71 c-21.48,-19.53,-56.3,-19.53,-77.78,0 Z M-148.89,64.64" fill="rgb(255,0,0)" transform="matrix(1,0,0,-1,-205.0,600.0)"/>
 <path d="M0,0 l-57.5,0 l0,50 l57.5,0 Z M0,0" fill="rgb(0,0,0)" transform="matrix(1,0,0,-1,-315.0,600.0)"/>
 <path d="M-155.66,64.64 c-22.46,19.53,-22.46,51.18,0,70.71 c22.46,19.53,58.86,19.53,81.32,0 c22.46,-19.53,22.46,-51.18,0.0,-70.71 c-22.46,-19.53,-58.86,-19.53,-81.32,0 Z M-155.66,64.64" fill="rgb(255,0,0)" transform="matrix(1,0,0,-1,-315.0,600.0)"/>
 <path d="M0,0 l-60,0 l0,50 l60,0 Z M0,0" fill="rgb(0,0,0)" transform="matrix(1,0,0,-1,-430.0,600.0)"/>
 <path d="M-162.43,64.64 c-23.43,19.53,-23.43,51.18,0,70.71 c23.43,19.53,61.42,19.53,84.85,0 c23.43,-19.53,23.43,-51.18,0,-70.71 c-23.43,-19.53,-61.42,-19.53,-84.85,0 Z M-162.43,64.64" fill="rgb(255,0,0)" transform="matrix(1,0,0,-1,-430.0,600.0)"/>
 <path d="M0,0 l-62.5,0 l0,50 l62.5,0 Z M0,0" fill="rgb(0,0,0)" transform="matrix(1,0,0,-1,-550.0,600.0)"/>
 <path d="M-169.19,64.64 c-24.41,19.53,-24.41,51.18,0,70.71 c24.41,19.53,63.98,19.53,88.39,0 c24.41,-19.53,24.41,-51.18,0.0,-70.71 c-24.41,-19.53,-63.98,-19.53,-88.39,0 Z M-169.19,64.64" fill="rgb(255,0,0)" transform="matrix(1,0,0,-1,-550.0,600.0)"/>
 <path d="M0,0 l-65,0 l0,50 l65,0 Z M0,0" fill="rgb(0,0,0)" transform="matrix(1,0,0,-1,-675.0,600.0)"/>
 <path d="M-175.96,64.64 c-25.38,19.53,-25.38,51.18,0,70.71 c25.38,19.53,66.54,19.53,91.92,0 c25.38,-19.53,25.38,-51.18,0,-70.71 c-25.38,-19.53,-66.54,-19.53,-91.92,0 Z M-175.96,64.64" fill="rgb(255,0,0)" transform="matrix(1,0,0,-1,-675.0,600.0)"/>
 <path d="M0,0 l-67.5,0 l0,50 l67.5,0 Z M0,0" fill="rgb(0,0,0)" transform="matrix(1,0,0,-1,-805.0,600.0)"/>
 <path d="M-182.73,64.64 c-26.36,19.53,-26.36,51.18,0,70.71 c26.36,19.53,69.1,19.53,95.46,0 c26.36,-19.53,26.36,-51.18,0.0,-70.71 c-26.36,-19.53,-69.1,-19.53,-95.46,0 Z M-182.73,64.64" fill="rgb(255,0,0)" transform="matrix(1,0,0,-1,-805.0,600.0)"/>
 <path d="M0,0 l-70,0 l0,50 l70,0 Z M0,0" fill="rgb(0,0,0)" transform="matrix(1,0,0,-1,-940.0,600.0)"/>
 <path d="M-189.5,64.64 c-27.34,19.53,-27.34,51.18,0,70.71 c27.34,19.53,71.66,19.53,98.99,0 c27.34,-19.53,27.34,-51.18,0,-70.71 c-27.34,-19.53,-71.66,-19.53,-98.99,0 Z M-189.5,64.64" fill="rgb(255,0,0)" transform="matrix(1,0,0,-1,-940.0,600.0)"/>
 <path d="M0,0 l-72.5,0 l0,50 l72.5,0 Z M0,0" fill="rgb(0,0,0)" transform="matrix(1,0,0,-1,-1080.0,600.0)"/>
 <path d="M-196.27,64.64 c-28.31,19.53,-28.31,51.18,0,70.71 c28.31,19.53,74.22,19.53,102.53,0 c28.31,-19.53,28.31,-51.18,0.0,-70.71 c-28.31,-19.53,-74.22,-19.53,-102.53,0 Z M-196.27,64.64" fill="rgb(255,0,0)" transform="matrix(1,0,0,-1,-1080.0,600.0)"/>
 <path d="M0,0 l-75,0 l0,50 l75,0 Z M0,0" fill="rgb(0,0,0)" transform="matrix(1,0,0,-1,0.0,500.0)"/>
 <path d="M-203.03,64.64 c-29.29,19.53,-29.29,51.18,0,70.71 c29.29,19.53,76.78,19.53,106.07,0 c29.29,-19.53,29.29,-51.18,0,-70.71 c-29.29,-19.53,-76.78,-19.53,-106.07,0 Z M-203.03,64.64" fill="rgb(255,0,0)" transform="matrix(1,0,0,-1,0.0,500.0)"/>
 <path d="M0,0 l-77.5,0 l0,50 l77.5,0 Z M0,0" fill="rgb(0,0,0)" transform="matrix(1,0,0,-1,-150.0,500.0)"/>
 <path d="M-209.8,64.64 c-30.27,19.53,-30.27,51.18,0,70.71 c30.27,19.53,79.34,19.53,109.6,0 c30.27,-19.53,30.27,-51.18,0.0,-70.71 c-30.27,-19.53,-79.34,-19.53,-109.6,0 Z M-209.8,64.64" fill="rgb(255,0,0)" transform="matrix(1,0,0,-1,-150.0,500.0)"/>
 <path d="M0,0 l-80,0 l0,50 l80,0 Z M0,0" fill="rgb(0,0,0)" transform="matrix(1,0,0,-1,-305.0,500.0)"/>
 <path d="M-216.57,64.64 c-31.24,19.53,-31.24,51.18,0,70.71 c31.24,19.53,81.9,19.53,113.14,0 c31.24,-19.53,31.24,-51.18,0.0,-70.71 c-31.24,-19.53,-81.9,-19.53,-113.14,0 Z M-216.57,64.64" fill="rgb(255,0,0)" transform="matrix(1,0,0,-1,-305.0,500.0)"/>
 <path d="M0,0 l-82.5,0 l0,50 l82.5,0 Z M0,0" fill="rgb(0,0,0)" transform="matrix(1,0,0,-1,-465.0,500.0)"/>
 <path d="M-223.34,64.64 c-32.22,19.53,-32.22,51.18,0,70.71 c32.22,19.53,84.45,19.53,116.67,0 c32.22,-19.53,32.22,-51.18,0.0,-70.71 c-32.22,-19.53,-84.45,-19.53,-116.67,0 Z M-223.34,64.64" fill="rgb(255,0,0)" transform="matrix(1,0,0,-1,-465.0,500.0)"/>
 <path d="M0,0 l-85,0 l0,50 l85,0 Z M0,0" fill="rgb(0,0,0)" transform="matrix(1,0,0,-1,-630.0,500.0)"/>
 <path d="M-230.1,64.64 c-33.19,19.53,-33.19,51.18,0,70.71 c33.19,19.53,87.01,19.53,120.21,0 c33.19,-19.53,33.19,-51.18,0.0,-70.71 c-33.19,-19.53,-87.01,-19.53,-120.21,0 Z M-230.1,64.64" fill="rgb(255,0,0)" transform="matrix(1,0,0,-1,-630.0,500.0)"/>
 <path d="M0,0 l-87.5,0 l0,50 l87.5,0 Z M0,0" fill="rgb(0,0,0)" transform="matrix(1,0,0,-1,-800.0,500.0)"/>
 <path d="M-236.87,64.64 c-34.17,19.53,-34.17,51.18,0,70.71 c34.17,19.53,89.57,19.53,123.74,0 c34.17,-19.53,34.17,-51.18,0.0,-70.71 c-34.17,-19.53,-89.57,-19.53,-123.74,0 Z M-236.87,64.64" fill="rgb(255,0,0)" transform="matrix(1,0,0,-1,-800.0,500.0)"/>
 <path d="M0,0 l-90,0 l0,50 l90,0 Z M0,0" fill="rgb(0,0,0)" transform="matrix(1,0,0,-1,-975.0,500.0)"/>
 <path d="M-243.64,64.64 c-35.15,19.53,-35.15,51.18,0,70.71 c35.15,19.53,92.13,19.53,127.28,0 c35.15,-19.53,35.15,-51.18,0.0,-70.71 c-35.15,-19.53,-92.13,-19.53,-127.28,0 Z M-243.64,64.64" fill="rgb(255,0,0)" transform="matrix(1,0,0,-1,-975.0,500.0)"/>
 <path d="M0,0 l-92.5,0 l0,50 l92.5,0 Z M0,0" fill="rgb(0,0,0)" transform="matrix(1,0,0,-1,-1155.0,500.0)"/>
 <path d="M-250.41,64.64 c-36.12,19.53,-36.12,51.18,0,70.71 c36.12,19.53,94.69,19.53,130.81,0 c36.12,-19.53,36.12,-51.18,0.0,-70.71 c-36.12,-19.53,-94.69,-19.53,-130.81,0 Z M-250.41,64.64" fill="rgb(255,0,0)" transform="matrix(1,0,0,-1,-1155.0,500.0)"/>
 <path d="M0,0 l-95,0 l0,50 l95,0 Z M0,0" fill="rgb(0,0,0)" transform="matrix(1,0,0,-1,-1340.0,500.0)"/>
 <path d="M-257.18,64.64 c-37.1,19.53,-37.1,51.18,0,70.71 c37.1,19.53,97.25,19.53,134.35,0 c37.1,-19.53,37.1,-51.18,0.0,-70.71 c-37.1,-19.53,-97.25,-19.53,-134.35,0 Z M-257.18,64.64" fill="rgb(255,0,0)" transform="matrix(1,0,0,-1,-1340.0,500.0)"/>
 <path d="M0,0 l-97.5,0 l0,50 l97.5,0 Z M0,0" fill="rgb(0,0,0)" transform="matrix(1,0,0,-1,-1530.0,500.0)"/>
 <path d="M-263.94,64.64 c-38.08,19.53,-38.08,51.18,0,70.71 c38.08,19.53,99.81,19.53,137.89,0 c38.08,-19.53,38.08,-51.18,0.0,-70.71 c-38.08,-19.53,-99.81,-19.53,-137.89,0 Z M-263.94,64.64" fill="rgb(255,0,0)" transform="matrix(1,0,0,-1,-1530.0,500.0)"/>
 <path d="M0,0 l-100,0 l0,50 l100,0 Z M0,0" fill="rgb(0,0,0)" transform="matrix(1,0,0,-1,0.0,400.0)"/>
 <path d="M-270.71,64.64 c-39.05,19.53,-39.05,51.18,0,70.71 c39.05,19.53,102.37,19.53,141.42,0 c39.05,-19.53,39.05,-51.18,0,-70.71 c-39.05,-19.53,-102.37,-19.53,-141.42,0 Z M-270.71,64.64" fill="rgb(255,0,0)" transform="matrix(1,0,0,-1,0.0,400.0)"/>
 <path d="M0,0 l-102.5,0 l0,50 l102.5,0 Z M0,0" fill="rgb(0,0,0)" transform="matrix(1,0,0,-1,-200.0,400.0)"/>
 <path d="M-277.48,64.64 c-40.03,19.53,-40.03,51.18,0,70.71 c40.03,19.53,104.93,19.53,144.96,0 c40.03,-19.53,40.03,-51.18,0.0,-70.71 c-40.03,-19.53,-104.93,-19.53,-144.96,0 Z M-277.48,64.64" fill="rgb(255,0,0)" transform="matrix(1,0,0,-1,-200.0,400.0)"/>
 <path d="M0,0 l-105,0 l0,50 l105,0 Z M0,0" fill="rgb(0,0,0)" transform="matrix(1,0,0,-1,-405.0,400.0)"/>
 <path d="M-284.25,64.64 c-41.01,19.53,-41.01,51.18,0,70.71 c41.01,19.53,107.49,19.53,148.49,0 c41.01,-19.53,41.01,-51.18,0.0,-70.71 c-41.01,-19.53,-107.49,-19.53,-148.49,0 Z M-284.25,64.64" fill="rgb(255,0,0)" transform="matrix(1,0,0,-1,-405.0,400.0)"/>
 <path d="M0,0 l-107.5,0 l0,50 l107.5,0 Z M0,0" fill="rgb(0,0,0)" transform="matrix(1,0,0,-1,-615.0,400.0)"/>
 <path d="M-291.01,64.64 c-41.98,19.53,-41.98,51.18,0,70.71 c41.98,19.53,110.05,19.53,152.03,0 c41.98,-19.53,41.98,-51.18,0.0,-70.71 c-41.98,-19.53,-110.05,-19.53,-152.03,0 Z M-291.01,64.64" fill="rgb(255,0,0)" transform="matrix(1,0,0,-1,-615.0,400.0)"/>
 <path d="M0,0 l-110,0 l0,50 l110,0 Z M0,0" fill="rgb(0,0,0)" transform="matrix(1,0,0,-1,-830.0,400.0)"/>
 <path d="M-297.78,64.64 c-42.96,19.53,-42.96,51.18,0,70.71 c42.96,19.53,112.61,19.53,155.56,0 c42.96,-19.53,42.96,-51.18,0,-70.71 c-42.96,-19.53,-112.61,-19.53,-155.56,0 Z M-297.78,64.64" fill="rgb(255,0,0)" transform="matrix(1,0,0,-1,-830.0,400.0)"/>
 <path d="M0,0 l-112.5,0 l0,50 l112.5,0 Z M0,0" fill="rgb(0,0,0)" transform="matrix(1,0,0,-1,-1050.0,400.0)"/>
 <path d="M-304.55,64.64 c-43.93,19.53,-43.93,51.18,0,70.71 c43.93,19.53,115.17,19.53,159.1,0 c43.93,-19.53,43.93,-51.18,0.0,-70.71 c-43.93,-19.53,-115.17,-19.53,-159.1,0 Z M-304.55,64.64" fill="rgb(255,0,0)" transform="matrix(1,0,0,-1,-1050.0,400.0)"/>
 <path d="M0,0 l-115,0 l0,50 l115,0 Z M0,0" fill="rgb(0,0,0)" transform="matrix(1,0,0,-1,-1275.0,400.0)"/>
 <path d="M-311.32,64.64 c-44.91,19.53,-44.91,51.18,0,70.71 c44.91,19.53,117.72,19.53,162.63,0 c44.91,-19.53,44.91,-51.18,0.0,-70.71 c-44.91,-19.53,-117.72,-19.53,-162.63,0 Z M-311.32,64.64" fill="rgb(255,0,0)" transform="matrix(1,0,0,-1,-1275.0,400.0)"/>
 <path d="M0,0 l-117.5,0 l0,50 l117.5,0 Z M0,0" fill="rgb(0,0,0)" transform="matrix(1,0,0,-1,-1505.0,400.0)"/>
 <path d="M-318.09,64.64 c-45.89,19.53,-45.89,51.18,0,70.71 c45.89,19.53,120.28,19.53,166.17,0 c45.89,-19.53,45.89,-51.18,0.0,-70.71 c-45.89,-19.53,-120.28,-19.53,-166.17,0 Z M-318.09,64.64" fill="rgb(255,0,0)" transform="matrix(1,0,0,-1,-1505.0,400.0)"/>
 <path d="M0,0 l-120,0 l0,50 l120,0 Z M0,0" fill="rgb(0,0,0)" transform="matrix(1,0,0,-1,-1740.0,400.0)"/>
 <path d="M-324.85,64.64 c-46.86,19.53,-46.86,51.18,0,70.71 c46.86,19.53,122.84,19.53,169.71,0 c46.86,-19.53,46.86,-51.18,0,-70.71 c-46.86,-19.53,-122.84,-19.53,-169.71,0 Z M-324.85,64.64" fill="rgb(255,0,0)" transform="matrix(1,0,0,-1,-1740.0,400.0)"/>
 <path d="M0,0 l-122.5,0 l0,50 l122.5,0 Z M0,0" fill="rgb(0,0,0)" transform="matrix(1,0,0,-1,-1980.0,400.0)"/>
 <path d="M-331.62,64.64 c-47.84,19.53,-47.84,51.18,0,70.71 c47.84,19.53,125.4,19.53,173.24,0 c47.84,-19.53,47.84,-51.18,0.0,-70.71 c-47.84,-19.53,-125.4,-19.53,-173.24,0 Z M-331.62,64.64" fill="rgb(255,0,0)" transform="matrix(1,0,0,-1,-1980.0,400.0)"/>
 <path d="M0,0 l-125,0 l0,50 l125,0 Z M0,0" fill="rgb(0,0,0)" transform="matrix(1,0,0,-1,0.0,300.0)"/>
 <path d="M-338.39,64.64 c-48.82,19.53,-48.82,51.18,0,70.71 c48.82,19.53,127.96,19.53,176.78,0 c48.82,-19.53,48.82,-51.18,0.0,-70.71 c-48.82,-19.53,-127.96,-19.53,-176.78,0 Z M-338.39,64.64" fill="rgb(255,0,0)" transform="matrix(1,0,0,-1,0.0,300.0)"/>
 <path d="M0,0 l-127.5,0 l0,50 l127.5,0 Z M0,0" fill="rgb(0,0,0)" transform="matrix(1,0,0,-1,-250.0,300.0)"/>
 <path d="M-345.16,64.64 c-49.79,19.53,-49.79,51.18,0,70.71 c49.79,19.53,130.52,19.53,180.31,0 c49.79,-19.53,49.79,-51.18,0.0,-70.71 c-49.79,-19.53,-130.52,-19.53,-180.31,0 Z M-345.16,64.64" fill="rgb(255,0,0)" transform="matrix(1,0,0,-1,-250.0,300.0)"/>
 <path d="M0,0 l-130,0 l0,50 l130,0 Z M0,0" fill="rgb(0,0,0)" transform="matrix(1,0,0,-1,-505.0,300.0)"/>
 <path d="M-351.92,64.64 c-50.77,19.53,-50.77,51.18,0,70.71 c50.77,19.53,133.08,19.53,183.85,0 c50.77,-19.53,50.77,-51.18,0,-70.71 c-50.77,-19.53,-133.08,-19.53,-183.85,0 Z M-351.92,64.64" fill="rgb(255,0,0)" transform="matrix(1,0,0,-1,-505.0,300.0)"/>
 <path d="M0,0 l-132.5,0 l0,50 l132.5,0 Z M0,0" fill="rgb(0,0,0)" transform="matrix(1,0,0,-1,-765.0,300.0)"/>
 <path d="M-358.69,64.64 c-51.74,19.53,-51.74,51.18,0,70.71 c51.74,19.53,135.64,19.53,187.38,0 c51.74,-19.53,51.74,-51.18,0.0,-70.71 c-51.74,-19.53,-135.64,-19.53,-187.38,0 Z M-358.69,64.64" fill="rgb(255,0,0)" transform="matrix(1,0,0,-1,-765.0,300.0)"/>
 <path d="M0,0 l-135,0 l0,50 l135,0 Z M0,0" fill="rgb(0,0,0)" transform="matrix(1,0,0,-1,-1030.0,300.0)"/>
 <path d="M-365.46,64.64 c-52.72,19.53,-52.72,51.18,0,70.71 c52.72,19.53,138.2,19.53,190.92,0 c52.72,-19.53,52.72,-51.18,0.0,-70.71 c-52.72,-19.53,-138.2,-19.53,-190.92,0 Z M-365.46,64.64" fill="rgb(255,0,0)" transform="matrix(1,0,0,-1,-1030.0,300.0)"/>
 <path d="M0,0 l-137.5,0 l0,50 l137.5,0 Z M0,0" fill="rgb(0,0,0)" transform="matrix(1,0,0,-1,-1300.0,300.0)"/>
 <path d="M-372.23,64.64 c-53.7,19.53,-53.7,51.18,0,70.71 c53.7,19.53,140.76,19.53,194.45,0 c53.7,-19.53,53.7,-51.18,0.0,-70.71 c-53.7,-19.53,-140.76,-19.53,-194.45,0 Z M-372.23,64.64" fill="rgb(255,0,0)" transform="matrix(1,0,0,-1,-1300.0,300.0)"/>
 <path d="M0,0 l-140,0 l0,50 l140,0 Z M0,0" fill="rgb(0,0,0)" transform="matrix(1,0,0,-1,-1575.0,300.0)"/>
 <path d="M-378.99,64.64 c-54.67,19.53,-54.67,51.18,0,70.71 c54.67,19.53,143.32,19.53,197.99,0 c54.67,-19.53,54.67,-51.18,0,-70.71 c-54.67,-19.53,-143.32,-19.53,-197.99,0 Z M-378.99,64.64" fill="rgb(255,0,0)" transform="matrix(1,0,0,-1,-1575.0,300.0)"/>
 <path d="M0,0 l-142.5,0 l0,50 l142.5,0 Z M0,0" fill="rgb(0,0,0)" transform="matrix(1,0,0,-1,-1855.0,300.0)"/>
 <path d="M-385.76,64.64 c-55.65,19.53,-55.65,51.18,0,70.71 c55.65,19.53,145.88,19.53,201.53,0 c55.65,-19.53,55.65,-51.18,0.0,-70.71 c-55.65,-19.53,-145.88,-19.53,-201.53,0 Z M-385.76,64.64" fill="rgb(255,0,0)" transform="matrix(1,0,0,-1,-1855.0,300.0)"/>
 <path d="M0,0 l-145,0 l0,50 l145,0 Z M0,0" fill="rgb(0,0,0)" transform="matrix(1,0,0,-1,-2140.0,300.0)"/>
 <path d="M-392.53,64.64 c-56.63,19.53,-56.63,51.18,0,70.71 c56.63,19.53,148.43,19.53,205.06,0 c56.63,-19.53,56.63,-51.18,0.0,-70.71 c-56.63,-19.53,-148.43,-19.53,-205.06,0 Z M-392.53,64.64" fill="rgb(255,0,0)" transform="matrix(1,0,0,-1,-2140.0,300.0)"/>
 <path d="M0,0 l-147.5,0 l0,50 l147.5,0 Z M0,0" fill="rgb(0,0,0)" transform="matrix(1,0,0,-1,-2430.0,300.0)"/>
 <path d="M-399.3,64.64 c-57.6,19.53,-57.6,51.18,0,70.71 c57.6,19.53,150.99,19.53,208.6,0 c57.6,-19.53,57.6,-51.18,0.0,-70.71 c-57.6,-19.53,-150.99,-19.53,-208.6,0 Z M-399.3,64.64" fill="rgb(255,0,0)" transform="matrix(1,0,0,-1,-2430.0,300.0)"/>
 <path d="M0,0 l-150,0 l0,50 l150,0 Z M0,0" fill="rgb(0,0,0)" transform="matrix(1,0,0,-1,0.0,200.0)"/>
 <path d="M-406.07,64.64 c-58.58,19.53,-58.58,51.18,0,70.71 c58.58,19.53,153.55,19.53,212.13,0 c58.58,-19.53,58.58,-51.18,0,-70.71 c-58.58,-19.53,-153.55,-19.53,-212.13,0 Z M-406.07,64.64" fill="rgb(255,0,0)" transform="matrix(1,0,0,-1,0.0,200.0)"/>
 <path d="M0,0 l-152.5,0 l0,50 l152.5,0 Z M0,0" fill="rgb(0,0,0)" transform="matrix(1,0,0,-1,-300.0,200.0)"/>
 <path d="M-412.83,64.64 c-59.55,19.53,-59.55,51.18,0,70.71 c59.55,19.53,156.11,19.53,215.67,0 c59.55,-19.53,59.55,-51.18,0.0,-70.71 c-59.55,-19.53,-156.11,-19.53,-215.67,0 Z M-412.83,64.64" fill="rgb(255,0,0)" transform="matrix(1,0,0,-1,-300.0,200.0)"/>
 <path d="M0,0 l-155,0 l0,50 l155,0 Z M0,0" fill="rgb(0,0,0)" transform="matrix(1,0,0,-1,-605.0,200.0)"/>
 <path d="M-419.6,64.64 c-60.53,19.53,-60.53,51.18,0,70.71 c60.53,19.53,158.67,19.53,219.2,0 c60.53,-19.53,60.53,-51.18,0.0,-70.71 c-60.53,-19.53,-158.67,-19.53,-219.2,0 Z M-419.6,64.64" fill="rgb(255,0,0)" transform="matrix(1,0,0,-1,-605.0,200.0)"/>
 <path d="M0,0 l-157.5,0 l0,50 l157.5,0 Z M0,0" fill="rgb(0,0,0)" transform="matrix(1,0,0,-1,-915.0,200.0)"/>
 <path d="M-426.37,64.64 c-61.51,19.53,-61.51,51.18,0,70.71 c61.51,19.53,161.23,19.53,222.74,0 c61.51,-19.53,61.51,-51.18,0.0,-70.71 c-61.51,-19.53,-161.23,-19.53,-222.74,0 Z M-426.37,64.64" fill="rgb(255,0,0)" transform="matrix(1,0,0,-1,-915.0,200.0)"/>
 <path d="M0,0 l-160,0 l0,50 l160,0 Z M0,0" fill="rgb(0,0,0)" transform="matrix(1,0,0,-1,-1230.0,200.0)"/>
 <path d="M-433.14,64.64 c-62.48,19.53,-62.48,51.18,0,70.71 c62.48,19.53,163.79,19.53,226.27,0 c62.48,-19.53,62.48,-51.18,0.0,-70.71 c-62.48,-19.53,-163.79,-19.53,-226.27,0 Z M-433.14,64.64" fill="rgb(255,0,0)" transform="matrix(1,0,0,-1,-1230.0,200.0)"/>
 <path d="M0,0 l-162.5,0 l0,50 l162.5,0 Z M0,0" fill="rgb(0,0,0)" transform="matrix(1,0,0,-1,-1550.0,200.0)"/>
 <path d="M-439.9,64.64 c-63.46,19.53,-63.46,51.18,0,70.71 c63.46,19.53,166.35,19.53,229.81,0 c63.46,-19.53,63.46,-51.18,0.0,-70.71 c-63.46,-19.53,-166.35,-19.53,-229.81,0 Z M-439.9,64.64" fill="rgb(255,0,0)" transform="matrix(1,0,0,-1,-1550.0,200.0)"/>
 <path d="M0,0 l-165,0 l0,50 l165,0 Z M0,0" fill="rgb(0,0,0)" transform="matrix(1,0,0,-1,-1875.0,200.0)"/>
 <path d="M-446.67,64.64 c-64.44,19.53,-64.44,51.18,0,70.71 c64.44,19.53,168.91,19.53,233.35,0 c64.44,-19.53,64.44,-51.18,0.0,-70.71 c-64.44,-19.53,-168.91,-19.53,-233.35,0 Z M-446.67,64.64" fill="rgb(255,0,0)" transform="matrix(1,0,0,-1,-1875.0,200.0)"/>
 <path d="M0,0 l-167.5,0 l0,50 l167.5,0 Z M0,0" fill="rgb(0,0,0)" transform="matrix(1,0,0,-1,-2205.0,200.0)"/>
 <path d="M-453.44,64.64 c-65.41,19.53,-65.41,51.18,0,70.71 c65.41,19.53,171.47,19.53,236.88,0 c65.41,-19.53,65.41,-51.18,0.0,-70.71 c-65.41,-19.53,-171.47,-19.53,-236.88,0 Z M-453.44,64.64" fill="rgb(255,0,0)" transform="matrix(1,0,0,-1,-2205.0,200.0)"/>
 <path d="M0,0 l-170,0 l0,50 l170,0 Z M0,0" fill="rgb(0,0,0)" transform="matrix(1,0,0,-1,-2540.0,200.0)"/>
 <path d="M-460.21,64.64 c-66.39,19.53,-66.39,51.18,0,70.71 c66.39,19.53,174.03,19.53,240.42,0 c66.39,-19.53,66.39,-51.18,0.0,-70.71 c-66.39,-19.53,-174.03,-19.53,-240.42,0 Z M-460.21,64.64" fill="rgb(255,0,0)" transform="matrix(1,0,0,-1,-2540.0,200.0)"/>
 <path d="M0,0 l-172.5,0 l0,50 l172.5,0 Z M0,0" fill="rgb(0,0,0)" transform="matrix(1,0,0,-1,-2880.0,200.0)"/>
 <path d="M-466.98,64.64 c-67.37,19.53,-67.37,51.18,0,70.71 c67.37,19.53,176.59,19.53,243.95,0 c67.37,-19.53,67.37,-51.18,0.0,-70.71 c-67.37,-19.53,-176.59,-19.53,-243.95,0 Z M-466.98,64.64" fill="rgb(255,0,0)" transform="matrix(1,0,0,-1,-2880.0,200.0)"/>
 <path d="M0,0 l-175,0 l0,50 l175,0 Z M0,0" fill="rgb(0,0,0)" transform="matrix(1,0,0,-1,0.0,100.0)"/>
 <path d="M-473.74,64.64 c-68.34,19.53,-68.34,51.18,0,70.71 c68.34,19.53,179.15,19.53,247.49,0 c68.34,-19.53,68.34,-51.18,0.0,-70.71 c-68.34,-19.53,-179.15,-19.53,-247.49,0 Z M-473.74,64.64" fill="rgb(255,0,0)" transform="matrix(1,0,0,-1,0.0,100.0)"/>
 <path d="M0,0 l-177.5,0 l0,50 l177.5,0 Z M0,0" fill="rgb(0,0,0)" transform="matrix(1,0,0,-1,-350.0,100.0)"/>
 <path d="M-480.51,64.64 c-69.32,19.53,-69.32,51.18,0,70.71 c69.32,19.53,181.7,19.53,251.02,0 c69.32,-19.53,69.32,-51.18,0.0,-70.71 c-69.32,-19.53,-181.7,-19.53,-251.02,0 Z M-480.51,64.64" fill="rgb(255,0,0)" transform="matrix(1,0,0,-1,-350.0,100.0)"/>
 <path d="M0,0 l-180,0 l0,50 l180,0 Z M0,0" fill="rgb(0,0,0)" transform="matrix(1,0,0,-1,-705.0,100.0)"/>
 <path d="M-487.28,64.64 c-70.29,19.53,-70.29,51.18,0,70.71 c70.29,19.53,184.26,19.53,254.56,0 c70.29,-19.53,70.29,-51.18,0.0,-70.71 c-70.29,-19.53,-184.26,-19.53,-254.56,0 Z M-487.28,64.64" fill="rgb(255,0,0)" transform="matrix(1,0,0,-1,-705.0,100.0)"/>
 <path d="M0,0 l-182.5,0 l0,50 l182.5,0 Z M0,0" fill="rgb(0,0,0)" transform="matrix(1,0,0,-1,-1065.0,100.0)"/>
 <path d="M-494.05,64.64 c-71.27,19.53,-71.27,51.18,0,70.71 c71.27,19.53,186.82,19.53,258.09,0 c71.27,-19.53,71.27,-51.18,0.0,-70.71 c-71.27,-19.53,-186.82,-19.53,-258.09,0 Z M-494.05,64.64" fill="rgb(255,0,0)" transform="matrix(1,0,0,-1,-1065.0,100.0)"/>
 <path d="M0,0 l-185,0 l0,50 l185,0 Z M0,0" fill="rgb(0,0,0)" transform="matrix(1,0,0,-1,-1430.0,100.0)"/>
 <path d="M-500.81,64.64 c-72.25,19.53,-72.25,51.18,0,70.71 c72.25,19.53,189.38,19.53,261.63,0 c72.25,-19.53,72.25,-51.18,0.0,-70.71 c-72.25,-19.53,-189.38,-19.53,-261.63,0 Z M-500.81,64.64" fill="rgb(255,0,0)" transform="matrix(1,0,0,-1,-1430.0,100.0)"/>
 <path d="M0,0 l-187.5,0 l0,50 l187.5,0 Z M0,0" fill="rgb(0,0,0)" transform="matrix(1,0,0,-1,-1800.0,100.0)"/>
 <path d="M-507.58,64.64 c-73.22,19.53,-73.22,51.18,0,70.71 c73.22,19.53,191.94,19.53,265.17,0 c73.22,-19.53,73.22,-51.18,0.0,-70.71 c-73.22,-19.53,-191.94,-19.53,-265.17,0 Z M-507.58,64.64" fill="rgb(255,0,0)" transform="matrix(1,0,0,-1,-1800.0,100.0)"/>
 <path d="M0,0 l-190,0 l0,50 l190,0 Z M0,0" fill="rgb(0,0,0)" transform="matrix(1,0,0,-1,-2175.0,100.0)"/>
 <path d="M-514.35,64.64 c-74.2,19.53,-74.2,51.18,0,70.71 c74.2,19.53,194.5,19.53,268.7,0 c74.2,-19.53,74.2,-51.18,0.0,-70.71 c-74.2,-19.53,-194.5,-19.53,-268.7,0 Z M-514.35,64.64" fill="rgb(255,0,0)" transform="matrix(1,0,0,-1,-2175.0,100.0)"/>
 <path d="M0,0 l-192.5,0 l0,50 l192.5,0 Z M0,0" fill="rgb(0,0,0)" transform="matrix(1,0,0,-1,-2555.0,100.0)"/>
 <path d="M-521.12,64.64 c-75.18,19.53,-75.18,51.18,0,70.71 c75.18,19.53,197.06,19.53,272.24,0 c75.18,-19.53,75.18,-51.18,0.0,-70.71 c-75.18,-19.53,-197.06,-19.53,-272.24,0 Z M-521.12,64.64" fill="rgb(255,0,0)" transform="matrix(1,0,0,-1,-2555.0,100.0)"/>
 <path d="M0,0 l-195,0 l0,50 l195,0 Z M0,0" fill="rgb(0,0,0)" transform="matrix(1,0,0,-1,-2940.0,100.0)"/>
 <path d="M-527.89,64.64 c-76.15,19.53,-76.15,51.18,0,70.71 c76.15,19.53,199.62,19.53,275.77,0 c76.15,-19.53,76.15,-51.18,0.0,-70.71 c-76.15,-19.53,-199.62,-19.53,-275.77,0 Z M-527.89,64.64" fill="rgb(255,0,0)" transform="matrix(1,0,0,-1,-2940.0,100.0)"/>
 <path d="M0,0 l-197.5,0 l0,50 l197.5,0 Z M0,0" fill="rgb(0,0,0)" transform="matrix(1,0,0,-1,-3330.0,100.0)"/>
 <path d="M-534.65,64.64 c-77.13,19.53,-77.13,51.18,0,70.71 c77.13,19.53,202.18,19.53,279.31,0 c77.13,-19.53,77.13,-51.18,0.0,-70.71 c-77.13,-19.53,-202.18,-19.53,-279.31,0 Z M-534.65,64.64" fill="rgb(255,0,0)" transform="matrix(1,0,0,-1,-3330.0,100.0)"/>
</svg>