<?xml version="1.0" encoding="UTF-8"?>
<svg width="1000" height="1000" viewBox="0 0 1000 1000" version="1.1" xmlns="http://www.w3.org/2000/svg" xmlns:xlink="http://www.w3.org/1999/xlink">
 <path d="M0,0 l50,0 l0,50 l-50,0 Z M0,0" fill="rgb(0,0,0)" transform="matrix(1,0,0,-1,0,1000)"/>
 <path d="M76.01,40.66 c9.76,9.76,9.76,25.59,0,35.36 c-9.76,9.76,-25.59,9.76,-35.36,0.0 c-9.76,-9.76,-9.76,-25.59,-0.0,-35.36 c9.76,-9.76,25.59,-9.76,35.36,-0.0 Z M76.01,40.66" fill="rgb(255,0,0)" transform="matrix(1,0,0,-1,0,1000)"/>
 <path d="M96.34,78.66 c4.88,4.88,4.88,12.8,0,17.68 c-4.88,4.88,-12.8,4.88,-17.68,0 c-4.88,-4.88,-4.88,-12.8,0,-17.68 c4.88,-4.88,12.8,-4.88,17.68,0 Z M96.34,78.66" fill="rgb(255,0,0)" transform="matrix(1,0,0,-1,0,1000)"/>
 <path d="M0,0 l50,0 l0,50 l-50,0 Z M0,0" fill="rgb(0,0,0)" transform="matrix(1,0,0,-1,100.0,1000.0)"/>
 <path d="M76.01,40.66 c9.76,9.76,9.76,25.59,0,35.36 c-9.76,9.76,-25.59,9.76,-35.36,0.0 c-9.76,-9.76,-9.76,-25.59,-0.0,-35.36 c9.76,-9.76,25.59,-9.76,35.36,-0.0 Z M76.01,40.66" fill="rgb(255,0,0)" transform="matrix(1,0,0,-1,100.0,1000.0)"/>
 <path d="M96.34,78.66 c4.88,4.88,4.88,12.8,0,17.68 c-4.88,4.88,-12.8,4.88,-17.68,0 c-4.88,-4.88,-4.88,-12.8,0,-17.68 c4.88,-4.88,12.8,-4.88,17.68,0 Z M96.34,78.66" fill="rgb(255,0,0)" transform="matrix(1,0,0,-1,100.0,1000.0)"/>
 <path d="M0,0 l50,0 l0,50 l-50,0 Z M0,0" fill="rgb(0,0,0)" transform="matrix(1,0,0,-1,200.0,1000.0)"/>
 <path d="M76.01,40.66 c9.76,9.76,9.76,25.59,0,35.36 c-9.76,9.76,-25.59,9.76,-35.36,0.0 c-9.76,-9.76,-9.76,-25.59,-0.0,-35.36 c9.76,-9.76,25.59,-9.76,35.36,-0.0 Z M76.01,40.66" fill="rgb(255,0,0)" transform="matrix(1,0,0,-1,200.0,1000.0)"/>
 <path d="M96.34,78.66 c4.88,4.88,4.88,12.8,0,17.68 c-4.88,4.88,-12.8,4.88,-17.68,0 c-4.88,-4.88,-4.88,-12.8,0,-17.68 c4.88,-4.88,12.8,-4.88,17.68,0 Z M96.34,78.66" fill="rgb(255,0,0)" transform="matrix(1,0,0,-1,200.0,1000.0)"/>
 <path d="M0,0 l50,0 l0,50 l-50,0 Z M0,0" fill="rgb(0,0,0)" transform="matrix(1,0,0,-1,300.0,1000.0)"/>
 <path d="M76.01,40.66 c9.76,9.76,9.76,25.59,0,35.36 c-9.76,9.76,-25.59,9.76,-35.36,0.0 c-9.76,-9.76,-9.76,-25.59,-0.0,-35.36 c9.76,-9.76,25.59,-9.76,35.36,-0.0 Z M76.01,40.66" fill="rgb(255,0,0)" transform="matrix(1,0,0,-1,300.0,1000.0)"/>
 <path d="M96.34,78.66 c4.88,4.88,4.88,12.8,0,17.68 c-4.88,4.88,-12.8,4.88,-17.68,0 c-4.88,-4.88,-4.88,-12.8,0,-17.68 c4.88,-4.88,12.8,-4.88,17.68,0 Z M96.34,78.66" fill="rgb(255,0,0)" transform="matrix(1,0,0,-1,300.0,1000.0)"/>
 <path d="M0,0 l50,0 l0,50 l-50,0 Z M0,0" fill="rgb(0,0,0)" transform="matrix(1,0,0,-1,400.0,1000.0)"/>
 <path d="M76.01,40.66 c9.76,9.76,9.76,25.59,0,35.36 c-9.76,9.76,-25.59,9.76,-35.36,0.0 c-9.76,-9.76,-9.76,-25.59,-0.0,-35.36 c9.76,-9.76,25.59,-9.76,35.36,-0.0 Z M76.01,40.66" fill="rgb(255,0,0)" transform="matrix(1,0,0,-1,400.0,1000.0)"/>
 <path d="M96.34,78.66 c4.88,4.88,4.88,12.8,0,17.68 c-4.88,4.88,-12.8,4.88,-17.68,0 c-4.88,-4.88,-4.88,-12.8,0,-17.68 c4.88,-4.88,12.8,-4.88,17.68,0 Z M96.34,78.66" fill="rgb(255,0,0)" transform="matrix(1,0,0,-1,400.0,1000.0)"/>
 <path d="M0,0 l50,0 l0,50 l-50,0 Z M0,0" fill="rgb(0,0,0)" transform="matrix(1,0,0,-1,500.0,1000.0)"/>
 <path d="M76.01,40.66 c9.76,9.76,9.76,25.59,0,35.36 c-9.76,9.76,-25.59,9.76,-35.36,0.0 c-9.76,-9.76,-9.76,-25.59,-0.0,-35.36 c9.76,-9.76,25.59,-9.76,35.36,-0.0 Z M76.01,40.66" fill="rgb(255,0,0)" transform="matrix(1,0,0,-1,500.0,1000.0)"/>
 <path d="M96.34,78.66 c4.88,4.88,4.88,12.8,0,17.68 c-4.88,4.88,-12.8,4.88,-17.68,0 c-4.88,-4.88,-4.88,-12.8,0,-17.68 c4.88,-4.88,12.8,-4.88,17.68,0 Z M96.34,78.66" fill="rgb(255,0,0)" transform="matrix(1,0,0,-1,500.0,1000.0)"/>
 <path d="M0,0 l50,0 l0,50 l-50,0 Z M0,0" fill="rgb(0,0,0)" transform="matrix(1,0,0,-1,600.0,1000.0)"/>
 <path d="M76.01,40.66 c9.76,9.76,9.76,25.59,0,35.36 c-9.76,9.76,-25.59,9.76,-35.36,0.0 c-9.76,-9.76,-9.76,-25.59,-0.0,-35.36 c9.76,-9.76,25.59,-9.76,35.36,-0.0 Z M76.01,40.66" fill="rgb(255,0,0)" transform="matrix(1,0,0,-1,600.0,1000.0)"/>
 <path d="M96.34,78.66 c4.88,4.88,4.88,12.8,0,17.68 c-4.88,4.88,-12.8,4.88,-17.68,0 c-4.88,-4.88,-4.88,-12.8,0,-17.68 c4.88,-4.88,12.8,-4.88,17.68,0 Z M96.34,78.66" fill="rgb(255,0,0)" transform="matrix(1,0,0,-1,600.0,1000.0)"/>
 <path d="M0,0 l50,0 l0,50 l-50,0 Z M0,0" fill="rgb(0,0,0)" transform="matrix(1,0,0,-1,700.0,1000.0)"/>
 <path d="M76.01,40.66 c9.76,9.76,9.76,25.59,0,35.36 c-9.76,9.76,-25.59,9.76,-35.36,0.0 c-9.76,-9.76,-9.76,-25.59,-0.0,-35.36 c9.76,-9.76,25.59,-9.76,35.36,-0.0 Z M76.01,40.66" fill="rgb(255,0,0)" transform="matrix(1,0,0,-1,700.0,1000.0)"/>
 <path d="M96.34,78.66 c4.88,4.88,4.88,12.8,0,17.68 c-4.88,4.88,-12.8,4.88,-17.68,0 c-4.88,-4.88,-4.88,-12.8,0,-17.68 c4.88,-4.88,12.8,-4.88,17.68,0 Z M96.34,78.66" fill="rgb(255,0,0)" transform="matrix(1,0,0,-1,700.0,1000.0)"/>
 <path d="M0,0 l50,0 l0,50 l-50,0 Z M0,0" fill="rgb(0,0,0)" transform="matrix(1,0,0,-1,800.0,1000.0)"/>
 <path d="M76.01,40.66 c9.76,9.76,9.76,25.59,0,35.36 c-9.76,9.76,-25.59,9.76,-35.36,0.0 c-9.76,-9.76,-9.76,-25.59,-0.0,-35.36 c9.76,-9.76,25.59,-9.76,35.36,-0.0 Z M76.01,40.66" fill="rgb(255,0,0)" transform="matrix(1,0,0,-1,800.0,1000.0)"/>
 <path d="M96.34,78.66 c4.88,4.88,4.88,12.8,0,17.68 c-4.88,4.88,-12.8,4.88,-17.68,0 c-4.88,-4.88,-4.88,-12.8,0,-17.68 c4.88,-4.88,12.8,-4.88,17.68,0 Z M96.34,78.66" fill="rgb(255,0,0)" transform="matrix(1,0,0,-1,800.0,1000.0)"/>
 <path d="M0,0 l50,0 l0,50 l-50,0 Z M0,0" fill="rgb(0,0,0)" transform="matrix(1,0,0,-1,900.0,1000.0)"/>
 <path d="M76.01,40.66 c9.76,9.76,9.76,25.59,0,35.36 c-9.76,9.76,-25.59,9.76,-35.36,0.0 c-9.76,-9.76,-9.76,-25.59,-0.0,-35.36 c9.76,-9.76,25.59,-9.76,35.36,-0.0 Z M76.01,40.66" fill="rgb(255,0,0)" transform="matrix(1,0,0,-1,900.0,1000.0)"/>
 <path d="M96.34,78.66 c4.88,4.88,4.88,12.8,0,17.68 c-4.88,4.88,-12.8,4.88,-17.68,0 c-4.88,-4.88,-4.88,-12.8,0,-17.68 c4.88,-4.88,12.8,-4.88,17.68,0 Z M96.34,78.66" fill="rgb(255,0,0)" transform="matrix(1,0,0,-1,900.0,1000.0)"/>
 <path d="M0,0 l50,0 l0,50 l-50,0 Z M0,0" fill="rgb(0,0,0)" transform="matrix(1,0,0,-1,0.0,900.0)"/>
 <path d="M76.01,40.66 c9.76,9.76,9.76,25.59,0,35.36 c-9.76,9.76,-25.59,9.76,-35.36,0.0 c-9.76,-9.76,-9.76,-25.59,-0.0,-35.36 c9.76,-9.76,25.59,-9.76,35.36,-0.0 Z M76.01,40.66" fill="rgb(255,0,0)" transform="matrix(1,0,0,-1,0.0,900.0)"/>
 <path d="M96.34,78.66 c4.88,4.88,4.88,12.8,0,17.68 c-4.88,4.88,-12.8,4.88,-17.68,0 c-4.88,-4.88,-4.88,-12.8,0,-17.68 c4.88,-4.88,12.8,-4.88,17.68,0 Z M96.34,78.66" fill="rgb(255,0,0)" transform="matrix(1,0,0,-1,0.0,900.0)"/>
 <path d="M0,0 l50,0 l0,50 l-50,0 Z M0,0" fill="rgb(0,0,0)" transform="matrix(1,0,0,-1,100.0,900.0)"/>
 <path d="M76.01,40.66 c9.76,9.76,9.76,25.59,0,35.36 c-9.76,9.76,-25.59,9.76,-35.36,0.0 c-9.76,-9.76,-9.76,-25.59,-0.0,-35.36 c9.76,-9.76,25.59,-9.76,35.36,-0.0 Z M76.01,40.66" fill="rgb(255,0,0)" transform="matrix(1,0,0,-1,100.0,900.0)"/>
 <path d="M96.34,78.66 c4.88,4.88,4.88,12.8,0,17.68 c-4.88,4.88,-12.8,4.88,-17.68,0 c-4.88,-4.88,-4.88,-12.8,0,-17.68 c4.88,-4.88,12.8,-4.88,17.68,0 Z M96.34,78.66" fill="rgb(255,0,0)" transform="matrix(1,0,0,-1,100.0,900.0)"/>
 <path d="M0,0 l50,0 l0,50 l-50,0 Z M0,0" fill="rgb(0,0,0)" transform="matrix(1,0,0,-1,200.0,900.0)"/>
 <path d="M76.01,40.66 c9.76,9.76,9.76,25.59,0,35.36 c-9.76,9.76,-25.59,9.76,-35.36,0.0 c-9.76,-9.76,-9.76,-25.59,-0.0,-35.36 c9.76,-9.76,25.59,-9.76,35.36,-0.0 Z M76.01,40.66" fill="rgb(255,0,0)" transform="matrix(1,0,0,-1,200.0,900.0)"/>
 <path d="M96.34,78.66 c4.88,4.88,4.88,12.8,0,17.68 c-4.88,4.88,-12.8,4.88,-17.68,0 c-4.88,-4.88,-4.88,-12.8,0,-17.68 c4.88,-4.88,12.8,-4.88,17.68,0 Z M96.34,78.66" fill="rgb(255,0,0)" transform="matrix(1,0,0,-1,200.0,900.0)"/>
 <path d="M0,0 l50,0 l0,50 l-50,0 Z M0,0" fill="rgb(0,0,0)" transform="matrix(1,0,0,-1,300.0,900.0)"/>
 <path d="M76.01,40.66 c9.76,9.76,9.76,25.59,0,35.36 c-9.76,9.76,-25.59,9.76,-35.36,0.0 c-9.76,-9.76,-9.76,-25.59,-0.0,-35.36 c9.76,-9.76,25.59,-9.76,35.36,-0.0 Z M76.01,40.66" fill="rgb(255,0,0)" transform="matrix(1,0,0,-1,300.0,900.0)"/>
 <path d="M96.34,78.66 c4.88,4.88,4.88,12.8,0,17.68 c-4.88,4.88,-12.8,4.88,-17.68,0 c-4.88,-4.88,-4.88,-12.8,0,-17.68 c4.88,-4.88,12.8,-4.88,17.68,0 Z M96.34,78.66" fill="rgb(255,0,0)" transform="matrix(1,0,0,-1,300.0,900.0)"/>
 <path d="M0,0 l50,0 l0,50 l-50,0 Z M0,0" fill="rgb(0,0,0)" transform="matrix(1,0,0,-1,400.0,900.0)"/>
 <path d="M76.01,40.66 c9.76,9.76,9.76,25.59,0,35.36 c-9.76,9.76,-25.59,9.76,-35.36,0.0 c-9.76,-9.76,-9.76,-25.59,-0.0,-35.36 c9.76,-9.76,25.59,-9.76,35.36,-0.0 Z M76.01,40.66" fill="rgb(255,0,0)" transform="matrix(1,0,0,-1,400.0,900.0)"/>
 <path d="M96.34,78.66 c4.88,4.88,4.88,12.8,0,17.68 c-4.88,4.88,-12.8,4.88,-17.68,0 c-4.88,-4.88,-4.88,-12.8,0,-17.68 c4.88,-4.88,12.8,-4.88,17.68,0 Z M96.34,78.66" fill="rgb(255,0,0)" transform="matrix(1,0,0,-1,400.0,900.0)"/>
 <path d="M0,0 l50,0 l0,50 l-50,0 Z M0,0" fill="rgb(0,0,0)" transform="matrix(1,0,0,-1,500.0,900.0)"/>
 <path d="M76.01,40.66 c9.76,9.76,9.76,25.59,0,35.36 c-9.76,9.76,-25.59,9.76,-35.36,0.0 c-9.76,-9.76,-9.76,-25.59,-0.0,-35.36 c9.76,-9.76,25.59,-9.76,35.36,-0.0 Z M76.01,40.66" fill="rgb(255,0,0)" transform="matrix(1,0,0,-1,500.0,900.0)"/>
 <path d="M96.34,78.66 c4.88,4.88,4.88,12.8,0,17.68 c-4.88,4.88,-12.8,4.88,-17.68,0 c-4.88,-4.88,-4.88,-12.8,0,-17.68 c4.88,-4.88,12.8,-4.88,17.68,0 Z M96.34,78.66" fill="rgb(255,0,0)" transform="matrix(1,0,0,-1,500.0,900.0)"/>
 <path d="M0,0 l50,0 l0,50 l-50,0 Z M0,0" fill="rgb(0,0,0)" transform="matrix(1,0,0,-1,600.0,900.0)"/>
 <path d="M76.01,40.66 c9.76,9.76,9.76,25.59,0,35.36 c-9.76,9.76,-25.59,9.76,-35.36,0.0 c-9.76,-9.76,-9.76,-25.59,-0.0,-35.36 c9.76,-9.76,25.59,-9.76,35.36,-0.0 Z M76.01,40.66" fill="rgb(255,0,0)" transform="matrix(1,0,0,-1,600.0,900.0)"/>
 <path d="M96.34,78.66 c4.88,4.88,4.88,12.8,0,17.68 c-4.88,4.88,-12.8,4.88,-17.68,0 c-4.88,-4.88,-4.88,-12.8,0,-17.68 c4.88,-4.88,12.8,-4.88,17.68,0 Z M96.34,78.66" fill="rgb(255,0,0)" transform="matrix(1,0,0,-1,600.0,900.0)"/>
 <path d="M0,0 l50,0 l0,50 l-50,0 Z M0,0" fill="rgb(0,0,0)" transform="matrix(1,0,0,-1,700.0,900.0)"/>
 <path d="M76.01,40.66 c9.76,9.76,9.76,25.59,0,35.36 c-9.76,9.76,-25.59,9.76,-35.36,0.0 c-9.76,-9.76,-9.76,-25.59,-0.0,-35.36 c9.76,-9.76,25.59,-9.76,35.36,-0.0 Z M76.01,40.66" fill="rgb(255,0,0)" transform="matrix(1,0,0,-1,700.0,900.0)"/>
 <path d="M96.34,78.66 c4.88,4.88,4.88,12.8,0,17.68 c-4.88,4.88,-12.8,4.88,-17.68,0 c-4.88,-4.88,-4.88,-12.8,0,-17.68 c4.88,-4.88,12.8,-4.88,17.68,0 Z M96.34,78.66" fill="rgb(255,0,0)" transform="matrix(1,0,0,-1,700.0,900.0)"/>
 <path d="M0,0 l50,0 l0,50 l-50,0 Z M0,0" fill="rgb(0,0,0)" transform="matrix(1,0,0,-1,800.0,900.0)"/>
 <path d="M76.01,40.66 c9.76,9.76,9.76,25.59,0,35.36 c-9.76,9.76,-25.59,9.76,-35.36,0.0 c-9.76,-9.76,-9.76,-25.59,-0.0,-35.36 c9.76,-9.76,25.59,-9.76,35.36,-0.0 Z M76.01,40.66" fill="rgb(255,0,0)" transform="matrix(1,0,0,-1,800.0,900.0)"/>
 <path d="M96.34,78.66 c4.88,4.88,4.88,12.8,0,17.68 c-4.88,4.88,-12.8,4.88,-17.68,0 c-4.88,-4.88,-4.88,-12.8,0,-17.68 c4.88,-4.88,12.8,-4.88,17.68,0 Z M96.34,78.66" fill="rgb(255,0,0)" transform="matrix(1,0,0,-1,800.0,900.0)"/>
 <path d="M0,0 l50,0 l0,50 l-50,0 Z M0,0" fill="rgb(0,0,0)" transform="matrix(1,0,0,-1,900.0,900.0)"/>
 <path d="M76.01,40.66 c9.76,9.76,9.76,25.59,0,35.36 c-9.76,9.76,-25.59,9.76,-35.36,0.0 c-9.76,-9.76,-9.76,-25.59,-0.0,-35.36 c9.76,-9.76,25.59,-9.76,35.36,-0.0 Z M76.01,40.66" fill="rgb(255,0,0)" transform="matrix(1,0,0,-1,900.0,900.0)"/>
 <path d="M96.34,78.66 c4.88,4.88,4.88,12.8,0,17.68 c-4.88,4.88,-12.8,4.88,-17.68,0 c-4.88,-4.88,-4.88,-12.8,0,-17.68 c4.88,-4.88,12.8,-4.88,17.68,0 Z M96.34,78.66" fill="rgb(255,0,0)" transform="matrix(1,0,0,-1,900.0,900.0)"/>
 <path d="M0,0 l50,0 l0,50 l-50,0 Z M0,0" fill="rgb(0,0,0)" transform="matrix(1,0,0,-1,0.0,800.0)"/>
 <path d="M76.01,40.66 c9.76,9.76,9.76,25.59,0,35.36 c-9.76,9.76,-25.59,9.76,-35.36,0.0 c-9.76,-9.76,-9.76,-25.59,-0.0,-35.36 c9.76,-9.76,25.59,-9.76,35.36,-0.0 Z M76.01,40.66" fill="rgb(255,0,0)" transform="matrix(1,0,0,-1,0.0,800.0)"/>
 <path d="M96.34,78.66 c4.88,4.88,4.88,12.8,0,17.68 c-4.88,4.88,-12.8,4.88,-17.68,0 c-4.88,-4.88,-4.88,-12.8,0,-17.68 c4.88,-4.88,12.8,-4.88,17.68,0 Z M96.34,78.66" fill="rgb(255,0,0)" transform="matrix(1,0,0,-1,0.0,800.0)"/>
 <path d="M0,0 l50,0 l0,50 l-50,0 Z M0,0" fill="rgb(0,0,0)" transform="matrix(1,0,0,-1,100.0,800.0)"/>
 <path d="M76.01,40.66 c9.76,9.76,9.76,25.59,0,35.36 c-9.76,9.76,-25.59,9.76,-35.36,0.0 c-9.76,-9.76,-9.76,-25.59,-0.0,-35.36 c9.76,-9.76,25.59,-9.76,35.36,-0.0 Z M76.01,40.66" fill="rgb(255,0,0)" transform="matrix(1,0,0,-1,100.0,800.0)"/>
 <path d="M96.34,78.66 c4.88,4.88,4.88,12.8,0,17.68 c-4.88,4.88,-12.8,4.88,-17.68,0 c-4.88,-4.88,-4.88,-12.8,0,-17.68 c4.88,-4.88,12.8,-4.88,17.68,0 Z M96.34,78.66" fill="rgb(255,0,0)" transform="matrix(1,0,0,-1,100.0,800.0)"/>
 <path d="M0,0 l50,0 l0,50 l-50,0 Z M0,0" fill="rgb(0,0,0)" transform="matrix(1,0,0,-1,200.0,800.0)"/>
 <path d="M76.01,40.66 c9.76,9.76,9.76,25.59,0,35.36 c-9.76,9.76,-25.59,9.76,-35.36,0.0 c-9.76,-9.76,-9.76,-25.59,-0.0,-35.36 c9.76,-9.76,25.59,-9.76,35.36,-0.0 Z M76.01,40.66" fill="rgb(255,0,0)" transform="matrix(1,0,0,-1,200.0,800.0)"/>
 <path d="M96.34,78.66 c4.88,4.88,4.88,12.8,0,17.68 c-4.88,4.88,-12.8,4.88,-17.68,0 c-4.88,-4.88,-4.88,-12.8,0,-17.68 c4.88,-4.88,12.8,-4.88,17.68,0 Z M96.34,78.66" fill="rgb(255,0,0)" transform="matrix(1,0,0,-1,200.0,800.0)"/>
 <path d="M0,0 l50,0 l0,50 l-50,0 Z M0,0" fill="rgb(0,0,0)" transform="matrix(1,0,0,-1,300.0,800.0)"/>
 <path d="M76.01,40.66 c9.76,9.76,9.76,25.59,0,35.36 c-9.76,9.76,-25.59,9.76,-35.36,0.0 c-9.76,-9.76,-9.76,-25.59,-0.0,-35.36 c9.76,-9.76,25.59,-9.76,35.36,-0.0 Z M76.01,40.66" fill="rgb(255,0,0)" transform="matrix(1,0,0,-1,300.0,800.0)"/>
 <path d="M96.34,78.66 c4.88,4.88,4.88,12.8,0,17.68 c-4.88,4.88,-12.8,4.88,-17.68,0 c-4.88,-4.88,-4.88,-12.8,0,-17.68 c4.88,-4.88,12.8,-4.88,17.68,0 Z M96.34,78.66" fill="rgb(255,0,0)" transform="matrix(1,0,0,-1,300.0,800.0)"/>
 <path d="M0,0 l50,0 l0,50 l-50,0 Z M0,0" fill="rgb(0,0,0)" transform="matrix(1,0,0,-1,400.0,800.0)"/>
 <path d="M76.01,40.66 c9.76,9.76,9.76,25.59,0,35.36 c-9.76,9.76,-25.59,9.76,-35.36,0.0 c-9.76,-9.76,-9.76,-25.59,-0.0,-35.36 c9.76,-9.76,25.59,-9.76,35.36,-0.0 Z M76.01,40.66" fill="rgb(255,0,0)" transform="matrix(1,0,0,-1,400.0,800.0)"/>
 <path d="M96.34,78.66 c4.88,4.88,4.88,12.8,0,17.68 c-4.88,4.88,-12.8,4.88,-17.68,0 c-4.88,-4.88,-4.88,-12.8,0,-17.68 c4.88,-4.88,12.8,-4.88,17.68,0 Z M96.34,78.66" fill="rgb(255,0,0)" transform="matrix(1,0,0,-1,400.0,800.0)"/>
 <path d="M0,0 l50,0 l0,50 l-50,0 Z M0,0" fill="rgb(0,0,0)" transform="matrix(1,0,0,-1,500.0,800.0)"/>
 <path d="M76.01,40.66 c9.76,9.76,9.76,25.59,0,35.36 c-9.76,9.76,-25.59,9.76,-35.36,0.0 c-9.76,-9.76,-9.76,-25.59,-0.0,-35.36 c9.76,-9.76,25.59,-9.76,35.36,-0.0 Z M76.01,40.66" fill="rgb(255,0,0)" transform="matrix(1,0,0,-1,500.0,800.0)"/>
 <path d="M96.34,78.66 c4.88,4.88,4.88,12.8,0,17.68 c-4.88,4.88,-12.8,4.88,-17.68,0 c-4.88,-4.88,-4.88,-12.8,0,-17.68 c4.88,-4.88,12.8,-4.88,17.68,0 Z M96.34,78.66" fill="rgb(255,0,0)" transform="matrix(1,0,0,-1,500.0,800.0)"/>
 <path d="M0,0 l50,0 l0,50 l-50,0 Z M0,0" fill="rgb(0,0,0)" transform="matrix(1,0,0,-1,600.0,800.0)"/>
 <path d="M76.01,40.66 c9.76,9.76,9.76,25.59,0,35.36 c-9.76,9.76,-25.59,9.76,-35.36,0.0 c-9.76,-9.76,-9.76,-25.59,-0.0,-35.36 c9.76,-9.76,25.59,-9.76,35.36,-0.0 Z M76.01,40.66" fill="rgb(255,0,0)" transform="matrix(1,0,0,-1,600.0,800.0)"/>
 <path d="M96.34,78.66 c4.88,4.88,4.88,12.8,0,17.68 c-4.88,4.88,-12.8,4.88,-17.68,0 c-4.88,-4.88,-4.88,-12.8,0,-17.68 c4.88,-4.88,12.8,-4.88,17.68,0 Z M96.34,78.66" fill="rgb(255,0,0)" transform="matrix(1,0,0,-1,600.0,800.0)"/>
 <path d="M0,0 l50,0 l0,50 l-50,0 Z M0,0" fill="rgb(0,0,0)" transform="matrix(1,0,0,-1,700.0,800.0)"/>
 <path d="M76.01,40.66 c9.76,9.76,9.76,25.59,0,35.36 c-9.76,9.76,-25.59,9.76,-35.36,0.0 c-9.76,-9.76,-9.76,-25.59,-0.0,-35.36 c9.76,-9.76,25.59,-9.76,35.36,-0.0 Z M76.01,40.66" fill="rgb(255,0,0)" transform="matrix(1,0,0,-1,700.0,800.0)"/>
 <path d="M96.34,78.66 c4.88,4.88,4.88,12.8,0,17.68 c-4.88,4.88,-12.8,4.88,-17.68,0 c-4.88,-4.88,-4.88,-12.8,0,-17.68 c4.88,-4.88,12.8,-4.88,17.68,0 Z M96.34,78.66" fill="rgb(255,0,0)" transform="matrix(1,0,0,-1,700.0,800.0)"/>
 <path d="M0,0 l50,0 l0,50 l-50,0 Z M0,0" fill="rgb(0,0,0)" transform="matrix(1,0,0,-1,800.0,800.0)"/>
 <path d="M76.01,40.66 c9.76,9.76,9.76,25.59,0,35.36 c-9.76,9.76,-25.59,9.76,-35.36,0.0 c-9.76,-9.76,-9.76,-25.59,-0.0,-35.36 c9.76,-9.76,25.59,-9.76,35.36,-0.0 Z M76.01,40.66" fill="rgb(255,0,0)" transform="matrix(1,0,0,-1,800.0,800.0)"/>
 <path d="M96.34,78.66 c4.88,4.88,4.88,12.8,0,17.68 c-4.88,4.88,-12.8,4.88,-17.68,0 c-4.88,-4.88,-4.88,-12.8,0,-17.68 c4.88,-4.88,12.8,-4.88,17.68,0 Z M96.34,78.66" fill="rgb(255,0,0)" transform="matrix(1,0,0,-1,800.0,800.0)"/>
 <path d="M0,0 l50,0 l0,50 l-50,0 Z M0,0" fill="rgb(0,0,0)" transform="matrix(1,0,0,-1,900.0,800.0)"/>
 <path d="M76.01,40.66 c9.76,9.76,9.76,25.59,0,35.36 c-9.76,9.76,-25.59,9.76,-35.36,0.0 c-9.76,-9.76,-9.76,-25.59,-0.0,-35.36 c9.76,-9.76,25.59,-9.76,35.36,-0.0 Z M76.01,40.66" fill="rgb(255,0,0)" transform="matrix(1,0,0,-1,900.0,800.0)"/>
 <path d="M96.34,78.66 c4.88,4.88,4.88,12.8,0,17.68 c-4.88,4.88,-12.8,4.88,-17.68,0 c-4.88,-4.88,-4.88,-12.8,0,-17.68 c4.88,-4.88,12.8,-4.88,17.68,0 Z M96.34,78.66" fill="rgb(255,0,0)" transform="matrix(1,0,0,-1,900.0,800.0)"/>
 <path d="M0,0 l50,0 l0,50 l-50,0 Z M0,0" fill="rgb(0,0,0)" transform="matrix(1,0,0,-1,0.0,700.0)"/>
 <path d="M76.01,40.66 c9.76,9.76,9.76,25.59,0,35.36 c-9.76,9.76,-25.59,9.76,-35.36,0.0 c-9.76,-9.76,-9.76,-25.59,-0.0,-35.36 c9.76,-9.76,25.59,-9.76,35.36,-0.0 Z M76.01,40.66" fill="rgb(255,0,0)" transform="matrix(1,0,0,-1,0.0,700.0)"/>
 <path d="M96.34,78.66 c4.88,4.88,4.88,12.8,0,17.68 c-4.88,4.88,-12.8,4.88,-17.68,0 c-4.88,-4.88,-4.88,-12.8,0,-17.68 c4.88,-4.88,12.8,-4.88,17.68,0 Z M96.34,78.66" fill="rgb(255,0,0)" transform="matrix(1,0,0,-1,0.0,700.0)"/>
 <path d="M0,0 l50,0 l0,50 l-50,0 Z M0,0" fill="rgb(0,0,0)" transform="matrix(1,0,0,-1,100.0,700.0)"/>
 <path d="M76.01,40.66 c9.76,9.76,9.76,25.59,0,35.36 c-9.76,9.76,-25.59,9.76,-35.36,0.0 c-9.76,-9.76,-9.76,-25.59,-0.0,-35.36 c9.76,-9.76,25.59,-9.76,35.36,-0.0 Z M76.01,40.66" fill="rgb(255,0,0)" transform="matrix(1,0,0,-1,100.0,700.0)"/>
 <path d="M96.34,78.66 c4.88,4.88,4.88,12.8,0,17.68 c-4.88,4.88,-12.8,4.88,-17.68,0 c-4.88,-4.88,-4.88,-12.8,0,-17.68 c4.88,-4.88,12.8,-4.88,17.68,0 Z M96.34,78.66" fill="rgb(255,0,0)" transform="matrix(1,0,0,-1,100.0,700.0)"/>
 <path d="M0,0 l50,0 l0,50 l-50,0 Z M0,0" fill="rgb(0,0,0)" transform="matrix(1,0,0,-1,200.0,700.0)"/>
 <path d="M76.01,40.66 c9.76,9.76,9.76,25.59,0,35.36 c-9.76,9.76,-25.59,9.76,-35.36,0.0 c-9.76,-9.76,-9.76,-25.59,-0.0,-35.36 c9.76,-9.76,25.59,-9.76,35.36,-0.0 Z M76.01,40.66" fill="rgb(255,0,0)" transform="matrix(1,0,0,-1,200.0,700.0)"/>
 <path d="M96.34,78.66 c4.88,4.88,4.88,12.8,0,17.68 c-4.88,4.88,-12.8,4.88,-17.68,0 c-4.88,-4.88,-4.88,-12.8,0,-17.68 c4.88,-4.88,12.8,-4.88,17.68,0 Z M96.34,78.66" fill="rgb(255,0,0)" transform="matrix(1,0,0,-1,200.0,700.0)"/>
 <path d="M0,0 l50,0 l0,50 l-50,0 Z M0,0" fill="rgb(0,0,0)" transform="matrix(1,0,0,-1,300.0,700.0)"/>
 <path d="M76.01,40.66 c9.76,9.76,9.76,25.59,0,35.36 c-9.76,9.76,-25.59,9.76,-35.36,0.0 c-9.76,-9.76,-9.76,-25.59,-0.0,-35.36 c9.76,-9.76,25.59,-9.76,35.36,-0.0 Z M76.01,40.66" fill="rgb(255,0,0)" transform="matrix(1,0,0,-1,300.0,700.0)"/>
 <path d="M96.34,78.66 c4.88,4.88,4.88,12.8,0,17.68 c-4.88,4.88,-12.8,4.88,-17.68,0 c-4.88,-4.88,-4.88,-12.8,0,-17.68 c4.88,-4.88,12.8,-4.88,17.68,0 Z M96.34,78.66" fill="rgb(255,0,0)" transform="matrix(1,0,0,-1,300.0,700.0)"/>
 <path d="M0,0 l50,0 l0,50 l-50,0 Z M0,0" fill="rgb(0,0,0)" transform="matrix(1,0,0,-1,400.0,700.0)"/>
 <path d="M76.01,40.66 c9.76,9.76,9.76,25.59,0,35.36 c-9.76,9.76,-25.59,9.76,-35.36,0.0 c-9.76,-9.76,-9.76,-25.59,-0.0,-35.36 c9.76,-9.76,25.59,-9.76,35.36,-0.0 Z M76.01,40.66" fill="rgb(255,0,0)" transform="matrix(1,0,0,-1,400.0,700.0)"/>
 <path d="M96.34,78.66 c4.88,4.88,4.88,12.8,0,17.68 c-4.88,4.88,-12.8,4.88,-17.68,0 c-4.88,-4.88,-4.88,-12.8,0,-17.68 c4.88,-4.88,12.8,-4.88,17.68,0 Z M96.34,78.66" fill="rgb(255,0,0)" transform="matrix(1,0,0,-1,400.0,700.0)"/>
 <path d="M0,0 l50,0 l0,50 l-50,0 Z M0,0" fill="rgb(0,0,0)" transform="matrix(1,0,0,-1,500.0,700.0)"/>
 <path d="M76.01,40.66 c9.76,9.76,9.76,25.59,0,35.36 c-9.76,9.76,-25.59,9.76,-35.36,0.0 c-9.76,-9.76,-9.76,-25.59,-0.0,-35.36 c9.76,-9.76,25.59,-9.76,35.36,-0.0 Z M76.01,40.66" fill="rgb(255,0,0)" transform="matrix(1,0,0,-1,500.0,700.0)"/>
 <path d="M96.34,78.66 c4.88,4.88,4.88,12.8,0,17.68 c-4.88,4.88,-12.8,4.88,-17.68,0 c-4.88,-4.88,-4.88,-12.8,0,-17.68 c4.88,-4.88,12.8,-4.88,17.68,0 Z M96.34,78.66" fill="rgb(255,0,0)" transform="matrix(1,0,0,-1,500.0,700.0)"/>
 <path d="M0,0 l50,0 l0,50 l-50,0 Z M0,0" fill="rgb(0,0,0)" transform="matrix(1,0,0,-1,600.0,700.0)"/>
 <path d="M76.01,40.66 c9.76,9.76,9.76,25.59,0,35.36 c-9.76,9.76,-25.59,9.76,-35.36,0.0 c-9.76,-9.76,-9.76,-25.59,-0.0,-35.36 c9.76,-9.76,25.59,-9.76,35.36,-0.0 Z M76.01,40.66" fill="rgb(255,0,0)" transform="matrix(1,0,0,-1,600.0,700.0)"/>
 <path d="M96.34,78.66 c4.88,4.88,4.88,12.8,0,17.68 c-4.88,4.88,-12.8,4.88,-17.68,0 c-4.88,-4.88,-4.88,-12.8,0,-17.68 c4.88,-4.88,12.8,-4.88,17.68,0 Z M96.34,78.66" fill="rgb(255,0,0)" transform="matrix(1,0,0,-1,600.0,700.0)"/>
 <path d="M0,0 l50,0 l0,50 l-50,0 Z M0,0" fill="rgb(0,0,0)" transform="matrix(1,0,0,-1,700.0,700.0)"/>
 <path d="M76.01,40.66 c9.76,9.76,9.76,25.59,0,35.36 c-9.76,9.76,-25.59,9.76,-35.36,0.0 c-9.76,-9.76,-9.76,-25.59,-0.0,-35.36 c9.76,-9.76,25.59,-9.76,35.36,-0.0 Z M76.01,40.66" fill="rgb(255,0,0)" transform="matrix(1,0,0,-1,700.0,700.0)"/>
 <path d="M96.34,78.66 c4.88,4.88,4.88,12.8,0,17.68 c-4.88,4.88,-12.8,4.88,-17.68,0 c-4.88,-4.88,-4.88,-12.8,0,-17.68 c4.88,-4.88,12.8,-4.88,17.68,0 Z M96.34,78.66" fill="rgb(255,0,0)" transform="matrix(1,0,0,-1,700.0,700.0)"/>
 <path d="M0,0 l50,0 l0,50 l-50,0 Z M0,0" fill="rgb(0,0,0)" transform="matrix(1,0,0,-1,800.0,700.0)"/>
 <path d="M76.01,40.66 c9.76,9.76,9.76,25.59,0,35.36 c-9.76,9.76,-25.59,9.76,-35.36,0.0 c-9.76,-9.76,-9.76,-25.59,-0.0,-35.36 c9.76,-9.76,25.59,-9.76,35.36,-0.0 Z M76.01,40.66" fill="rgb(255,0,0)" transform="matrix(1,0,0,-1,800.0,700.0)"/>
 <path d="M96.34,78.66 c4.88,4.88,4.88,12.8,0,17.68 c-4.88,4.88,-12.8,4.88,-17.68,0 c-4.88,-4.88,-4.88,-12.8,0,-17.68 c4.88,-4.88,12.8,-4.88,17.68,0 Z M96.34,78.66" fill="rgb(255,0,0)" transform="matrix(1,0,0,-1,800.0,700.0)"/>
 <path d="M0,0 l50,0 l0,50 l-50,0 Z M0,0" fill="rgb(0,0,0)" transform="matrix(1,0,0,-1,900.0,700.0)"/>
 <path d="M76.01,40.66 c9.76,9.76,9.76,25.59,0,35.36 c-9.76,9.76,-25.59,9.76,-35.36,0.0 c-9.76,-9.76,-9.76,-25.59,-0.0,-35.36 c9.76,-9.76,25.59,-9.76,35.36,-0.0 Z M76.01,40.66" fill="rgb(255,0,0)" transform="matrix(1,0,0,-1,900.0,700.0)"/>
 <path d="M96.34,78.66 c4.88,4.88,4.88,12.8,0,17.68 c-4.88,4.88,-12.8,4.88,-17.68,0 c-4.88,-4.88,-4.88,-12.8,0,-17.68 c4.88,-4.88,12.8,-4.88,17.68,0 Z M96.34,78.66" fill="rgb(255,0,0)" transform="matrix(1,0,0,-1,900.0,700.0)"/>
 <path d="M0,0 l50,0 l0,50 l-50,0 Z M0,0" fill="rgb(0,0,0)" transform="matrix(1,0,0,-1,0.0,600.0)"/>
 <path d="M76.01,40.66 c9.76,9.76,9.76,25.59,0,35.36 c-9.76,9.76,-25.59,9.76,-35.36,0.0 c-9.76,-9.76,-9.76,-25.59,-0.0,-35.36 c9.76,-9.76,25.59,-9.76,35.36,-0.0 Z M76.01,40.66" fill="rgb(255,0,0)" transform="matrix(1,0,0,-1,0.0,600.0)"/>
 <path d="M96.34,78.66 c4.88,4.88,4.88,12.8,0,17.68 c-4.88,4.88,-12.8,4.88,-17.68,0 c-4.88,-4.88,-4.88,-12.8,0,-17.68 c4.88,-4.88,12.8,-4.88,17.68,0 Z M96.34,78.66" fill="rgb(255,0,0)" transform="matrix(1,0,0,-1,0.0,600.0)"/>
 <path d="M0,0 l50,0 l0,50 l-50,0 Z M0,0" fill="rgb(0,0,0)" transform="matrix(1,0,0,-1,100.0,600.0)"/>
 <path d="M76.01,40.66 c9.76,9.76,9.76,25.59,0,35.36 c-9.76,9.76,-25.59,9.76,-35.36,0.0 c-9.76,-9.76,-9.76,-25.59,-0.0,-35.36 c9.76,-9.76,25.59,-9.76,35.36,-0.0 Z M76.01,40.66" fill="rgb(255,0,0)" transform="matrix(1,0,0,-1,100.0,600.0)"/>
 <path d="M96.34,78.66 c4.88,4.88,4.88,12.8,0,17.68 c-4.88,4.88,-12.8,4.88,-17.68,0 c-4.88,-4.88,-4.88,-12.8,0,-17.68 c4.88,-4.88,12.8,-4.88,17.68,0 Z M96.34,78.66" fill="rgb(255,0,0)" transform="matrix(1,0,0,-1,100.0,600.0)"/>
 <path d="M0,0 l50,0 l0,50 l-50,0 Z M0,0" fill="rgb(0,0,0)" transform="matrix(1,0,0,-1,200.0,600.0)"/>
 <path d="M76.01,40.66 c9.76,9.76,9.76,25.59,0,35.36 c-9.76,9.76,-25.59,9.76,-35.36,0.0 c-9.76,-9.76,-9.76,-25.59,-0.0,-35.36 c9.76,-9.76,25.59,-9.76,35.36,-0.0 Z M76.01,40.66" fill="rgb(255,0,0)" transform="matrix(1,0,0,-1,200.0,600.0)"/>
 <path d="M96.34,78.66 c4.88,4.88,4.88,12.8,0,17.68 c-4.88,4.88,-12.8,4.88,-17.68,0 c-4.88,-4.88,-4.88,-12.8,0,-17.68 c4.88,-4.88,12.8,-4.88,17.68,0 Z M96.34,78.66" fill="rgb(255,0,0)" transform="matrix(1,0,0,-1,200.0,600.0)"/>
 <path d="M0,0 l50,0 l0,50 l-50,0 Z M0,0" fill="rgb(0,0,0)" transform="matrix(1,0,0,-1,300.0,600.0)"/>
 <path d="M76.01,40.66 c9.76,9.76,9.76,25.59,0,35.36 c-9.76,9.76,-25.59,9.76,-35.36,0.0 c-9.76,-9.76,-9.76,-25.59,-0.0,-35.36 c9.76,-9.76,25.59,-9.76,35.36,-0.0 Z M76.01,40.66" fill="rgb(255,0,0)" transform="matrix(1,0,0,-1,300.0,600.0)"/>
 <path d="M96.34,78.66 c4.88,4.88,4.88,12.8,0,17.68 c-4.88,4.88,-12.8,4.88,-17.68,0 c-4.88,-4.88,-4.88,-12.8,0,-17.68 c4.88,-4.88,12.8,-4.88,17.68,0 Z M96.34,78.66" fill="rgb(255,0,0)" transform="matrix(1,0,0,-1,300.0,600.0)"/>
 <path d="M0,0 l50,0 l0,50 l-50,0 Z M0,0" fill="rgb(0,0,0)" transform="matrix(1,0,0,-1,400.0,600.0)"/>
 <path d="M76.01,40.66 c9.76,9.76,9.76,25.59,0,35.36 c-9.76,9.76,-25.59,9.76,-35.36,0.0 c-9.76,-9.76,-9.76,-25.59,-0.0,-35.36 c9.76,-9.76,25.59,-9.76,35.36,-0.0 Z M76.01,40.66" fill="rgb(255,0,0)" transform="matrix(1,0,0,-1,400.0,600.0)"/>
 <path d="M96.34,78.66 c4.88,4.88,4.88,12.8,0,17.68 c-4.88,4.88,-12.8,4.88,-17.68,0 c-4.88,-4.88,-4.88,-12.8,0,-17.68 c4.88,-4.88,12.8,-4.88,17.68,0 Z M96.34,78.66" fill="rgb(255,0,0)" transform="matrix(1,0,0,-1,400.0,600.0)"/>
 <path d="M0,0 l50,0 l0,50 l-50,0 Z M0,0" fill="rgb(0,0,0)" transform="matrix(1,0,0,-1,500.0,600.0)"/>
 <path d="M76.01,40.66 c9.76,9.76,9.76,25.59,0,35.36 c-9.76,9.76,-25.59,9.76,-35.36,0.0 c-9.76,-9.76,-9.76,-25.59,-0.0,-35.36 c9.76,-9.76,25.59,-9.76,35.36,-0.0 Z M76.01,40.66" fill="rgb(255,0,0)" transform="matrix(1,0,0,-1,500.0,600.0)"/>
 <path d="M96.34,78.66 c4.88,4.88,4.88,12.8,0,17.68 c-4.88,4.88,-12.8,4.88,-17.68,0 c-4.88,-4.88,-4.88,-12.8,0,-17.68 c4.88,-4.88,12.8,-4.88,17.68,0 Z M96.34,78.66" fill="rgb(255,0,0)" transform="matrix(1,0,0,-1,500.0,600.0)"/>
 <path d="M0,0 l50,0 l0,50 l-50,0 Z M0,0" fill="rgb(0,0,0)" transform="matrix(1,0,0,-1,600.0,600.0)"/>
 <path d="M76.01,40.66 c9.76,9.76,9.76,25.59,0,35.36 c-9.76,9.76,-25.59,9.76,-35.36,0.0 c-9.76,-9.76,-9.76,-25.59,-0.0,-35.36 c9.76,-9.76,25.59,-9.76,35.36,-0.0 Z M76.01,40.66" fill="rgb(255,0,0)" transform="matrix(1,0,0,-1,600.0,600.0)"/>
 <path d="M96.34,78.66 c4.88,4.88,4.88,12.8,0,17.68 c-4.88,4.88,-12.8,4.88,-17.68,0 c-4.88,-4.88,-4.88,-12.8,0,-17.68 c4.88,-4.88,12.8,-4.88,17.68,0 Z M96.34,78.66" fill="rgb(255,0,0)" transform="matrix(1,0,0,-1,600.0,600.0)"/>
 <path d="M0,0 l50,0 l0,50 l-50,0 Z M0,0" fill="rgb(0,0,0)" transform="matrix(1,0,0,-1,700.0,600.0)"/>
 <path d="M76.01,40.66 c9.76,9.76,9.76,25.59,0,35.36 c-9.76,9.76,-25.59,9.76,-35.36,0.0 c-9.76,-9.76,-9.76,-25.59,-0.0,-35.36 c9.76,-9.76,25.59,-9.76,35.36,-0.0 Z M76.01,40.66" fill="rgb(255,0,0)" transform="matrix(1,0,0,-1,700.0,600.0)"/>
 <path d="M96.34,78.66 c4.88,4.88,4.88,12.8,0,17.68 c-4.88,4.88,-12.8,4.88,-17.68,0 c-4.88,-4.88,-4.88,-12.8,0,-17.68 c4.88,-4.88,12.8,-4.88,17.68,0 Z M96.34,78.66" fill="rgb(255,0,0)" transform="matrix(1,0,0,-1,700.0,600.0)"/>
 <path d="M0,0 l50,0 l0,50 l-50,0 Z M0,0" fill="rgb(0,0,0)" transform="matrix(1,0,0,-1,800.0,600.0)"/>
 <path d="M76.01,40.66 c9.76,9.76,9.76,25.59,0,35.36 c-9.76,9.76,-25.59,9.76,-35.36,0.0 c-9.76,-9.76,-9.76,-25.59,-0.0,-35.36 c9.76,-9.76,25.59,-9.76,35.36,-0.0 Z M76.01,40.66" fill="rgb(255,0,0)" transform="matrix(1,0,0,-1,800.0,600.0)"/>
 <path d="M96.34,78.66 c4.88,4.88,4.88,12.8,0,17.68 c-4.88,4.88,-12.8,4.88,-17.68,0 c-4.88,-4.88,-4.88,-12.8,0,-17.68 c4.88,-4.88,12.8,-4.88,17.68,0 Z M96.34,78.66" fill="rgb(255,0,0)" transform="matrix(1,0,0,-1,800.0,600.0)"/>
 <path d="M0,0 l50,0 l0,50 l-50,0 Z M0,0" fill="rgb(0,0,0)" transform="matrix(1,0,0,-1,900.0,600.0)"/>
 <path d="M76.01,40.66 c9.76,9.76,9.76,25.59,0,35.36 c-9.76,9.76,-25.59,9.76,-35.36,0.0 c-9.76,-9.76,-9.76,-25.59,-0.0,-35.36 c9.76,-9.76,25.59,-9.76,35.36,-0.0 Z M76.01,40.66" fill="rgb(255,0,0)" transform="matrix(1,0,0,-1,900.0,600.0)"/>
 <path d="M96.34,78.66 c4.88,4.88,4.88,12.8,0,17.68 c-4.88,4.88,-12.8,4.88,-17.68,0 c-4.88,-4.88,-4.88,-12.8,0,-17.68 c4.88,-4.88,12.8,-4.88,17.68,0 Z M96.34,78.66" fill="rgb(255,0,0)" transform="matrix(1,0,0,-1,900.0,600.0)"/>
 <path d="M0,0 l50,0 l0,50 l-50,0 Z M0,0" fill="rgb(0,0,0)" transform="matrix(1,0,0,-1,0.0,500.0)"/>
 <path d="M76.01,40.66 c9.76,9.76,9.76,25.59,0,35.36 c-9.76,9.76,-25.59,9.76,-35.36,0.0 c-9.76,-9.76,-9.76,-25.59,-0.0,-35.36 c9.76,-9.76,25.59,-9.76,35.36,-0.0 Z M76.01,40.66" fill="rgb(255,0,0)" transform="matrix(1,0,0,-1,0.0,500.0)"/>
 <path d="M96.34,78.66 c4.88,4.88,4.88,12.8,0,17.68 c-4.88,4.88,-12.8,4.88,-17.68,0 c-4.88,-4.88,-4.88,-12.8,0,-17.68 c4.88,-4.88,12.8,-4.88,17.68,0 Z M96.34,78.66" fill="rgb(255,0,0)" transform="matrix(1,0,0,-1,0.0,500.0)"/>
 <path d="M0,0 l50,0 l0,50 l-50,0 Z M0,0" fill="rgb(0,0,0)" transform="matrix(1,0,0,-1,100.0,500.0)"/>
 <path d="M76.01,40.66 c9.76,9.76,9.76,25.59,0,35.36 c-9.76,9.76,-25.59,9.76,-35.36,0.0 c-9.76,-9.76,-9.76,-25.59,-0.0,-35.36 c9.76,-9.76,25.59,-9.76,35.36,-0.0 Z M76.01,40.66" fill="rgb(255,0,0)" transform="matrix(1,0,0,-1,100.0,500.0)"/>
 <path d="M96.34,78.66 c4.88,4.88,4.88,12.8,0,17.68 c-4.88,4.88,-12.8,4.88,-17.68,0 c-4.88,-4.88,-4.88,-12.8,0,-17.68 c4.88,-4.88,12.8,-4.88,17.68,0 Z M96.34,78.66" fill="rgb(255,0,0)" transform="matrix(1,0,0,-1,100.0,500.0)"/>
 <path d="M0,0 l50,0 l0,50 l-50,0 Z M0,0" fill="rgb(0,0,0)" transform="matrix(1,0,0,-1,200.0,500.0)"/>
 <path d="M76.01,40.66 c9.76,9.76,9.76,25.59,0,35.36 c-9.76,9.76,-25.59,9.76,-35.36,0.0 c-9.76,-9.76,-9.76,-25.59,-0.0,-35.36 c9.76,-9.76,25.59,-9.76,35.36,-0.0 Z M76.01,40.66" fill="rgb(255,0,0)" transform="matrix(1,0,0,-1,200.0,500.0)"/>
 <path d="M96.34,78.66 c4.88,4.88,4.88,12.8,0,17.68 c-4.88,4.88,-12.8,4.88,-17.68,0 c-4.88,-4.88,-4.88,-12.8,0,-17.68 c4.88,-4.88,12.8,-4.88,17.68,0 Z M96.34,78.66" fill="rgb(255,0,0)" transform="matrix(1,0,0,-1,200.0,500.0)"/>
 <path d="M0,0 l50,0 l0,50 l-50,0 Z M0,0" fill="rgb(0,0,0)" transform="matrix(1,0,0,-1,300.0,500.0)"/>
 <path d="M76.01,40.66 c9.76,9.76,9.76,25.59,0,35.36 c-9.76,9.76,-25.59,9.76,-35.36,0.0 c-9.76,-9.76,-9.76,-25.59,-0.0,-35.36 c9.76,-9.76,25.59,-9.76,35.36,-0.0 Z M76.01,40.66" fill="rgb(255,0,0)" transform="matrix(1,0,0,-1,300.0,500.0)"/>
 <path d="M96.34,78.66 c4.88,4.88,4.88,12.8,0,17.68 c-4.88,4.88,-12.8,4.88,-17.68,0 c-4.88,-4.88,-4.88,-12.8,0,-17.68 c4.88,-4.88,12.8,-4.88,17.68,0 Z M96.34,78.66" fill="rgb(255,0,0)" transform="matrix(1,0,0,-1,300.0,500.0)"/>
 <path d="M0,0 l50,0 l0,50 l-50,0 Z M0,0" fill="rgb(0,0,0)" transform="matrix(1,0,0,-1,400.0,500.0)"/>
 <path d="M76.01,40.66 c9.76,9.76,9.76,25.59,0,35.36 c-9.76,9.76,-25.59,9.76,-35.36,0.0 c-9.76,-9.76,-9.76,-25.59,-0.0,-35.36 c9.76,-9.76,25.59,-9.76,35.36,-0.0 Z M76.01,40.66" fill="rgb(255,0,0)" transform="matrix(1,0,0,-1,400.0,500.0)"/>
 <path d="M96.34,78.66 c4.88,4.88,4.88,12.8,0,17.68 c-4.88,4.88,-12.8,4.88,-17.68,0 c-4.88,-4.88,-4.88,-12.8,0,-17.68 c4.88,-4.88,12.8,-4.88,17.68,0 Z M96.34,78.66" fill="rgb(255,0,0)" transform="matrix(1,0,0,-1,400.0,500.0)"/>
 <path d="M0,0 l50,0 l0,50 l-50,0 Z M0,0" fill="rgb(0,0,0)" transform="matrix(1,0,0,-1,500.0,500.0)"/>
 <path d="M76.01,40.66 c9.76,9.76,9.76,25.59,0,35.36 c-9.76,9.76,-25.59,9.76,-35.36,0.0 c-9.76,-9.76,-9.76,-25.59,-0.0,-35.36 c9.76,-9.76,25.59,-9.76,35.36,-0.0 Z M76.01,40.66" fill="rgb(255,0,0)" transform="matrix(1,0,0,-1,500.0,500.0)"/>
 <path d="M96.34,78.66 c4.88,4.88,4.88,12.8,0,17.68 c-4.88,4.88,-12.8,4.88,-17.68,0 c-4.88,-4.88,-4.88,-12.8,0,-17.68 c4.88,-4.88,12.8,-4.88,17.68,0 Z M96.34,78.66" fill="rgb(255,0,0)" transform="matrix(1,0,0,-1,500.0,500.0)"/>
 <path d="M0,0 l50,0 l0,50 l-50,0 Z M0,0" fill="rgb(0,0,0)" transform="matrix(1,0,0,-1,600.0,500.0)"/>
 <path d="M76.01,40.66 c9.76,9.76,9.76,25.59,0,35.36 c-9.76,9.76,-25.59,9.76,-35.36,0.0 c-9.76,-9.76,-9.76,-25.59,-0.0,-35.36 c9.76,-9.76,25.59,-9.76,35.36,-0.0 Z M76.01,40.66" fill="rgb(255,0,0)" transform="matrix(1,0,0,-1,600.0,500.0)"/>
 <path d="M96.34,78.66 c4.88,4.88,4.88,12.8,0,17.68 c-4.88,4.88,-12.8,4.88,-17.68,0 c-4.88,-4.88,-4.88,-12.8,0,-17.68 c4.88,-4.88,12.8,-4.88,17.68,0 Z M96.34,78.66" fill="rgb(255,0,0)" transform="matrix(1,0,0,-1,600.0,500.0)"/>
 <path d="M0,0 l50,0 l0,50 l-50,0 Z M0,0" fill="rgb(0,0,0)" transform="matrix(1,0,0,-1,700.0,500.0)"/>
 <path d="M76.01,40.66 c9.76,9.76,9.76,25.59,0,35.36 c-9.76,9.76,-25.59,9.76,-35.36,0.0 c-9.76,-9.76,-9.76,-25.59,-0.0,-35.36 c9.76,-9.76,25.59,-9.76,35.36,-0.0 Z M76.01,40.66" fill="rgb(255,0,0)" transform="matrix(1,0,0,-1,700.0,500.0)"/>
 <path d="M96.34,78.66 c4.88,4.88,4.88,12.8,0,17.68 c-4.88,4.88,-12.8,4.88,-17.68,0 c-4.88,-4.88,-4.88,-12.8,0,-17.68 c4.88,-4.88,12.8,-4.88,17.68,0 Z M96.34,78.66" fill="rgb(255,0,0)" transform="matrix(1,0,0,-1,700.0,500.0)"/>
 <path d="M0,0 l50,0 l0,50 l-50,0 Z M0,0" fill="rgb(0,0,0)" transform="matrix(1,0,0,-1,800.0,500.0)"/>
 <path d="M76.01,40.66 c9.76,9.76,9.76,25.59,0,35.36 c-9.76,9.76,-25.59,9.76,-35.36,0.0 c-9.76,-9.76,-9.76,-25.59,-0.0,-35.36 c9.76,-9.76,25.59,-9.76,35.36,-0.0 Z M76.01,40.66" fill="rgb(255,0,0)" transform="matrix(1,0,0,-1,800.0,500.0)"/>
 <path d="M96.34,78.66 c4.88,4.88,4.88,12.8,0,17.68 c-4.88,4.88,-12.8,4.88,-17.68,0 c-4.88,-4.88,-4.88,-12.8,0,-17.68 c4.88,-4.88,12.8,-4.88,17.68,0 Z M96.34,78.66" fill="rgb(255,0,0)" transform="matrix(1,0,0,-1,800.0,500.0)"/>
 <path d="M0,0 l50,0 l0,50 l-50,0 Z M0,0" fill="rgb(0,0,0)" transform="matrix(1,0,0,-1,900.0,500.0)"/>
 <path d="M76.01,40.66 c9.76,9.76,9.76,25.59,0,35.36 c-9.76,9.76,-25.59,9.76,-35.36,0.0 c-9.76,-9.76,-9.76,-25.59,-0.0,-35.36 c9.76,-9.76,25.59,-9.76,35.36,-0.0 Z M76.01,40.66" fill="rgb(255,0,0)" transform="matrix(1,0,0,-1,900.0,500.0)"/>
 <path d="M96.34,78.66 c4.88,4.88,4.88,12.8,0,17.68 c-4.88,4.88,-12.8,4.88,-17.68,0 c-4.88,-4.88,-4.88,-12.8,0,-17.68 c4.88,-4.88,12.8,-4.88,17.68,0 Z M96.34,78.66" fill="rgb(255,0,0)" transform="matrix(1,0,0,-1,900.0,500.0)"/>
 <path d="M0,0 l50,0 l0,50 l-50,0 Z M0,0" fill="rgb(0,0,0)" transform="matrix(1,0,0,-1,0.0,400.0)"/>
 <path d="M76.01,40.66 c9.76,9.76,9.76,25.59,0,35.36 c-9.76,9.76,-25.59,9.76,-35.36,0.0 c-9.76,-9.76,-9.76,-25.59,-0.0,-35.36 c9.76,-9.76,25.59,-9.76,35.36,-0.0 Z M76.01,40.66" fill="rgb(255,0,0)" transform="matrix(1,0,0,-1,0.0,400.0)"/>
 <path d="M96.34,78.66 c4.88,4.88,4.88,12.8,0,17.68 c-4.88,4.88,-12.8,4.88,-17.68,0 c-4.88,-4.88,-4.88,-12.8,0,-17.68 c4.88,-4.88,12.8,-4.88,17.68,0 Z M96.34,78.66" fill="rgb(255,0,0)" transform="matrix(1,0,0,-1,0.0,400.0)"/>
 <path d="M0,0 l50,0 l0,50 l-50,0 Z M0,0" fill="rgb(0,0,0)" transform="matrix(1,0,0,-1,100.0,400.0)"/>
 <path d="M76.01,40.66 c9.76,9.76,9.76,25.59,0,35.36 c-9.76,9.76,-25.59,9.76,-35.36,0.0 c-9.76,-9.76,-9.76,-25.59,-0.0,-35.36 c9.76,-9.76,25.59,-9.76,35.36,-0.0 Z M76.01,40.66" fill="rgb(255,0,0)" transform="matrix(1,0,0,-1,100.0,400.0)"/>
 <path d="M96.34,78.66 c4.88,4.88,4.88,12.8,0,17.68 c-4.88,4.88,-12.8,4.88,-17.68,0 c-4.88,-4.88,-4.88,-12.8,0,-17.68 c4.88,-4.88,12.8,-4.88,17.68,0 Z M96.34,78.66" fill="rgb(255,0,0)" transform="matrix(1,0,0,-1,100.0,400.0)"/>
 <path d="M0,0 l50,0 l0,50 l-50,0 Z M0,0" fill="rgb(0,0,0)" transform="matrix(1,0,0,-1,200.0,400.0)"/>
 <path d="M76.01,40.66 c9.76,9.76,9.76,25.59,0,35.36 c-9.76,9.76,-25.59,9.76,-35.36,0.0 c-9.76,-9.76,-9.76,-25.59,-0.0,-35.36 c9.76,-9.76,25.59,-9.76,35.36,-0.0 Z M76.01,40.66" fill="rgb(255,0,0)" transform="matrix(1,0,0,-1,200.0,400.0)"/>
 <path d="M96.34,78.66 c4.88,4.88,4.88,12.8,0,17.68 c-4.88,4.88,-12.8,4.88,-17.68,0 c-4.88,-4.88,-4.88,-12.8,0,-17.68 c4.88,-4.88,12.8,-4.88,17.68,0 Z M96.34,78.66" fill="rgb(255,0,0)" transform="matrix(1,0,0,-1,200.0,400.0)"/>
 <path d="M0,0 l50,0 l0,50 l-50,0 Z M0,0" fill="rgb(0,0,0)" transform="matrix(1,0,0,-1,300.0,400.0)"/>
 <path d="M76.01,40.66 c9.76,9.76,9.76,25.59,0,35.36 c-9.76,9.76,-25.59,9.76,-35.36,0.0 c-9.76,-9.76,-9.76,-25.59,-0.0,-35.36 c9.76,-9.76,25.59,-9.76,35.36,-0.0 Z M76.01,40.66" fill="rgb(255,0,0)" transform="matrix(1,0,0,-1,300.0,400.0)"/>
 <path d="M96.34,78.66 c4.88,4.88,4.88,12.8,0,17.68 c-4.88,4.88,-12.8,4.88,-17.68,0 c-4.88,-4.88,-4.88,-12.8,0,-17.68 c4.88,-4.88,12.8,-4.88,17.68,0 Z M96.34,78.66" fill="rgb(255,0,0)" transform="matrix(1,0,0,-1,300.0,400.0)"/>
 <path d="M0,0 l50,0 l0,50 l-50,0 Z M0,0" fill="rgb(0,0,0)" transform="matrix(1,0,0,-1,400.0,400.0)"/>
 <path d="M76.01,40.66 c9.76,9.76,9.76,25.59,0,35.36 c-9.76,9.76,-25.59,9.76,-35.36,0.0 c-9.76,-9.76,-9.76,-25.59,-0.0,-35.36 c9.76,-9.76,25.59,-9.76,35.36,-0.0 Z M76.01,40.66" fill="rgb(255,0,0)" transform="matrix(1,0,0,-1,400.0,400.0)"/>
 <path d="M96.34,78.66 c4.88,4.88,4.88,12.8,0,17.68 c-4.88,4.88,-12.8,4.88,-17.68,0 c-4.88,-4.88,-4.88,-12.8,0,-17.68 c4.88,-4.88,12.8,-4.88,17.68,0 Z M96.34,78.66" fill="rgb(255,0,0)" transform="matrix(1,0,0,-1,400.0,400.0)"/>
 <path d="M0,0 l50,0 l0,50 l-50,0 Z M0,0" fill="rgb(0,0,0)" transform="matrix(1,0,0,-1,500.0,400.0)"/>
 <path d="M76.01,40.66 c9.76,9.76,9.76,25.59,0,35.36 c-9.76,9.76,-25.59,9.76,-35.36,0.0 c-9.76,-9.76,-9.76,-25.59,-0.0,-35.36 c9.76,-9.76,25.59,-9.76,35.36,-0.0 Z M76.01,40.66" fill="rgb(255,0,0)" transform="matrix(1,0,0,-1,500.0,400.0)"/>
 <path d="M96.34,78.66 c4.88,4.88,4.88,12.8,0,17.68 c-4.88,4.88,-12.8,4.88,-17.68,0 c-4.88,-4.88,-4.88,-12.8,0,-17.68 c4.88,-4.88,12.8,-4.88,17.68,0 Z M96.34,78.66" fill="rgb(255,0,0)" transform="matrix(1,0,0,-1,500.0,400.0)"/>
 <path d="M0,0 l50,0 l0,50 l-50,0 Z M0,0" fill="rgb(0,0,0)" transform="matrix(1,0,0,-1,600.0,400.0)"/>
 <path d="M76.01,40.66 c9.76,9.76,9.76,25.59,0,35.36 c-9.76,9.76,-25.59,9.76,-35.36,0.0 c-9.76,-9.76,-9.76,-25.59,-0.0,-35.36 c9.76,-9.76,25.59,-9.76,35.36,-0.0 Z M76.01,40.66" fill="rgb(255,0,0)" transform="matrix(1,0,0,-1,600.0,400.0)"/>
 <path d="M96.34,78.66 c4.88,4.88,4.88,12.8,0,17.68 c-4.88,4.88,-12.8,4.88,-17.68,0 c-4.88,-4.88,-4.88,-12.8,0,-17.68 c4.88,-4.88,12.8,-4.88,17.68,0 Z M96.34,78.66" fill="rgb(255,0,0)" transform="matrix(1,0,0,-1,600.0,400.0)"/>
 <path d="M0,0 l50,0 l0,50 l-50,0 Z M0,0" fill="rgb(0,0,0)" transform="matrix(1,0,0,-1,700.0,400.0)"/>
 <path d="M76.01,40.66 c9.76,9.76,9.76,25.59,0,35.36 c-9.76,9.76,-25.59,9.76,-35.36,0.0 c-9.76,-9.76,-9.76,-25.59,-0.0,-35.36 c9.76,-9.76,25.59,-9.76,35.36,-0.0 Z M76.01,40.66" fill="rgb(255,0,0)" transform="matrix(1,0,0,-1,700.0,400.0)"/>
 <path d="M96.34,78.66 c4.88,4.88,4.88,12.8,0,17.68 c-4.88,4.88,-12.8,4.88,-17.68,0 c-4.88,-4.88,-4.88,-12.8,0,-17.68 c4.88,-4.88,12.8,-4.88,17.68,0 Z M96.34,78.66" fill="rgb(255,0,0)" transform="matrix(1,0,0,-1,700.0,400.0)"/>
 <path d="M0,0 l50,0 l0,50 l-50,0 Z M0,0" fill="rgb(0,0,0)" transform="matrix(1,0,0,-1,800.0,400.0)"/>
 <path d="M76.01,40.66 c9.76,9.76,9.76,25.59,0,35.36 c-9.76,9.76,-25.59,9.76,-35.36,0.0 c-9.76,-9.76,-9.76,-25.59,-0.0,-35.36 c9.76,-9.76,25.59,-9.76,35.36,-0.0 Z M76.01,40.66" fill="rgb(255,0,0)" transform="matrix(1,0,0,-1,800.0,400.0)"/>
 <path d="M96.34,78.66 c4.88,4.88,4.88,12.8,0,17.68 c-4.88,4.88,-12.8,4.88,-17.68,0 c-4.88,-4.88,-4.88,-12.8,0,-17.68 c4.88,-4.88,12.8,-4.88,17.68,0 Z M96.34,78.66" fill="rgb(255,0,0)" transform="matrix(1,0,0,-1,800.0,400.0)"/>
 <path d="M0,0 l50,0 l0,50 l-50,0 Z M0,0" fill="rgb(0,0,0)" transform="matrix(1,0,0,-1,900.0,400.0)"/>
 <path d="M76.01,40.66 c9.76,9.76,9.76,25.59,0,35.36 c-9.76,9.76,-25.59,9.76,-35.36,0.0 c-9.76,-9.76,-9.76,-25.59,-0.0,-35.36 c9.76,-9.76,25.59,-9.76,35.36,-0.0 Z M76.01,40.66" fill="rgb(255,0,0)" transform="matrix(1,0,0,-1,900.0,400.0)"/>
 <path d="M96.34,78.66 c4.88,4.88,4.88,12.8,0,17.68 c-4.88,4.88,-12.8,4.88,-17.68,0 c-4.88,-4.88,-4.88,-12.8,0,-17.68 c4.88,-4.88,12.8,-4.88,17.68,0 Z M96.34,78.66" fill="rgb(255,0,0)" transform="matrix(1,0,0,-1,900.0,400.0)"/>
 <path d="M0,0 l50,0 l0,50 l-50,0 Z M0,0" fill="rgb(0,0,0)" transform="matrix(1,0,0,-1,0.0,300.0)"/>
 <path d="M76.01,40.66 c9.76,9.76,9.76,25.59,0,35.36 c-9.76,9.76,-25.59,9.76,-35.36,0.0 c-9.76,-9.76,-9.76,-25.59,-0.0,-35.36 c9.76,-9.76,25.59,-9.76,35.36,-0.0 Z M76.01,40.66" fill="rgb(255,0,0)" transform="matrix(1,0,0,-1,0.0,300.0)"/>
 <path d="M96.34,78.66 c4.88,4.88,4.88,12.8,0,17.68 c-4.88,4.88,-12.8,4.88,-17.68,0 c-4.88,-4.88,-4.88,-12.8,0,-17.68 c4.88,-4.88,12.8,-4.88,17.68,0 Z M96.34,78.66" fill="rgb(255,0,0)" transform="matrix(1,0,0,-1,0.0,300.0)"/>
 <path d="M0,0 l50,0 l0,50 l-50,0 Z M0,0" fill="rgb(0,0,0)" transform="matrix(1,0,0,-1,100.0,300.0)"/>
 <path d="M76.01,40.66 c9.76,9.76,9.76,25.59,0,35.36 c-9.76,9.76,-25.59,9.76,-35.36,0.0 c-9.76,-9.76,-9.76,-25.59,-0.0,-35.36 c9.76,-9.76,25.59,-9.76,35.36,-0.0 Z M76.01,40.66" fill="rgb(255,0,0)" transform="matrix(1,0,0,-1,100.0,300.0)"/>
 <path d="M96.34,78.66 c4.88,4.88,4.88,12.8,0,17.68 c-4.88,4.88,-12.8,4.88,-17.68,0 c-4.88,-4.88,-4.88,-12.8,0,-17.68 c4.88,-4.88,12.8,-4.88,17.68,0 Z M96.34,78.66" fill="rgb(255,0,0)" transform="matrix(1,0,0,-1,100.0,300.0)"/>
 <path d="M0,0 l50,0 l0,50 l-50,0 Z M0,0" fill="rgb(0,0,0)" transform="matrix(1,0,0,-1,200.0,300.0)"/>
 <path d="M76.01,40.66 c9.76,9.76,9.76,25.59,0,35.36 c-9.76,9.76,-25.59,9.76,-35.36,0.0 c-9.76,-9.76,-9.76,-25.59,-0.0,-35.36 c9.76,-9.76,25.59,-9.76,35.36,-0.0 Z M76.01,40.66" fill="rgb(255,0,0)" transform="matrix(1,0,0,-1,200.0,300.0)"/>
 <path d="M96.34,78.66 c4.88,4.88,4.88,12.8,0,17.68 c-4.88,4.88,-12.8,4.88,-17.68,0 c-4.88,-4.88,-4.88,-12.8,0,-17.68 c4.88,-4.88,12.8,-4.88,17.68,0 Z M96.34,78.66" fill="rgb(255,0,0)" transform="matrix(1,0,0,-1,200.0,300.0)"/>
 <path d="M0,0 l50,0 l0,50 l-50,0 Z M0,0" fill="rgb(0,0,0)" transform="matrix(1,0,0,-1,300.0,300.0)"/>
 <path d="M76.01,40.66 c9.76,9.76,9.76,25.59,0,35.36 c-9.76,9.76,-25.59,9.76,-35.36,0.0 c-9.76,-9.76,-9.76,-25.59,-0.0,-35.36 c9.76,-9.76,25.59,-9.76,35.36,-0.0 Z M76.01,40.66" fill="rgb(255,0,0)" transform="matrix(1,0,0,-1,300.0,300.0)"/>
 <path d="M96.34,78.66 c4.88,4.88,4.88,12.8,0,17.68 c-4.88,4.88,-12.8,4.88,-17.68,0 c-4.88,-4.88,-4.88,-12.8,0,-17.68 c4.88,-4.88,12.8,-4.88,17.68,0 Z M96.34,78.66" fill="rgb(255,0,0)" transform="matrix(1,0,0,-1,300.0,300.0)"/>
 <path d="M0,0 l50,0 l0,50 l-50,0 Z M0,0" fill="rgb(0,0,0)" transform="matrix(1,0,0,-1,400.0,300.0)"/>
 <path d="M76.01,40.66 c9.76,9.76,9.76,25.59,0,35.36 c-9.76,9.76,-25.59,9.76,-35.36,0.0 c-9.76,-9.76,-9.76,-25.59,-0.0,-35.36 c9.76,-9.76,25.59,-9.76,35.36,-0.0 Z M76.01,40.66" fill="rgb(255,0,0)" transform="matrix(1,0,0,-1,400.0,300.0)"/>
 <path d="M96.34,78.66 c4.88,4.88,4.88,12.8,0,17.68 c-4.88,4.88,-12.8,4.88,-17.68,0 c-4.88,-4.88,-4.88,-12.8,0,-17.68 c4.88,-4.88,12.8,-4.88,17.68,0 Z M96.34,78.66" fill="rgb(255,0,0)" transform="matrix(1,0,0,-1,400.0,300.0)"/>
 <path d="M0,0 l50,0 l0,50 l-50,0 Z M0,0" fill="rgb(0,0,0)" transform="matrix(1,0,0,-1,500.0,300.0)"/>
 <path d="M76.01,40.66 c9.76,9.76,9.76,25.59,0,35.36 c-9.76,9.76,-25.59,9.76,-35.36,0.0 c-9.76,-9.76,-9.76,-25.59,-0.0,-35.36 c9.76,-9.76,25.59,-9.76,35.36,-0.0 Z M76.01,40.66" fill="rgb(255,0,0)" transform="matrix(1,0,0,-1,500.0,300.0)"/>
 <path d="M96.34,78.66 c4.88,4.88,4.88,12.8,0,17.68 c-4.88,4.88,-12.8,4.88,-17.68,0 c-4.88,-4.88,-4.88,-12.8,0,-17.68 c4.88,-4.88,12.8,-4.88,17.68,0 Z M96.34,78.66" fill="rgb(255,0,0)" transform="matrix(1,0,0,-1,500.0,300.0)"/>
 <path d="M0,0 l50,0 l0,50 l-50,0 Z M0,0" fill="rgb(0,0,0)" transform="matrix(1,0,0,-1,600.0,300.0)"/>
 <path d="M76.01,40.66 c9.76,9.76,9.76,25.59,0,35.36 c-9.76,9.76,-25.59,9.76,-35.36,0.0 c-9.76,-9.76,-9.76,-25.59,-0.0,-35.36 c9.76,-9.76,25.59,-9.76,35.36,-0.0 Z M76.01,40.66" fill="rgb(255,0,0)" transform="matrix(1,0,0,-1,600.0,300.0)"/>
 <path d="M96.34,78.66 c4.88,4.88,4.88,12.8,0,17.68 c-4.88,4.88,-12.8,4.88,-17.68,0 c-4.88,-4.88,-4.88,-12.8,0,-17.68 c4.88,-4.88,12.8,-4.88,17.68,0 Z M96.34,78.66" fill="rgb(255,0,0)" transform="matrix(1,0,0,-1,600.0,300.0)"/>
 <path d="M0,0 l50,0 l0,50 l-50,0 Z M0,0" fill="rgb(0,0,0)" transform="matrix(1,0,0,-1,700.0,300.0)"/>
 <path d="M76.01,40.66 c9.76,9.76,9.76,25.59,0,35.36 c-9.76,9.76,-25.59,9.76,-35.36,0.0 c-9.76,-9.76,-9.76,-25.59,-0.0,-35.36 c9.76,-9.76,25.59,-9.76,35.36,-0.0 Z M76.01,40.66" fill="rgb(255,0,0)" transform="matrix(1,0,0,-1,700.0,300.0)"/>
 <path d="M96.34,78.66 c4.88,4.88,4.88,12.8,0,17.68 c-4.88,4.88,-12.8,4.88,-17.68,0 c-4.88,-4.88,-4.88,-12.8,0,-17.68 c4.88,-4.88,12.8,-4.88,17.68,0 Z M96.34,78.66" fill="rgb(255,0,0)" transform="matrix(1,0,0,-1,700.0,300.0)"/>
 <path d="M0,0 l50,0 l0,50 l-50,0 Z M0,0" fill="rgb(0,0,0)" transform="matrix(1,0,0,-1,800.0,300.0)"/>
 <path d="M76.01,40.66 c9.76,9.76,9.76,25.59,0,35.36 c-9.76,9.76,-25.59,9.76,-35.36,0.0 c-9.76,-9.76,-9.76,-25.59,-0.0,-35.36 c9.76,-9.76,25.59,-9.76,35.36,-0.0 Z M76.01,40.66" fill="rgb(255,0,0)" transform="matrix(1,0,0,-1,800.0,300.0)"/>
 <path d="M96.34,78.66 c4.88,4.88,4.88,12.8,0,17.68 c-4.88,4.88,-12.8,4.88,-17.68,0 c-4.88,-4.88,-4.88,-12.8,0,-17.68 c4.88,-4.88,12.8,-4.88,17.68,0 Z M96.34,78.66" fill="rgb(255,0,0)" transform="matrix(1,0,0,-1,800.0,300.0)"/>
 <path d="M0,0 l50,0 l0,50 l-50,0 Z M0,0" fill="rgb(0,0,0)" transform="matrix(1,0,0,-1,900.0,300.0)"/>
 <path d="M76.01,40.66 c9.76,9.76,9.76,25.59,0,35.36 c-9.76,9.76,-25.59,9.76,-35.36,0.0 c-9.76,-9.76,-9.76,-25.59,-0.0,-35.36 c9.76,-9.76,25.59,-9.76,35.36,-0.0 Z M76.01,40.66" fill="rgb(255,0,0)" transform="matrix(1,0,0,-1,900.0,300.0)"/>
 <path d="M96.34,78.66 c4.88,4.88,4.88,12.8,0,17.68 c-4.88,4.88,-12.8,4.88,-17.68,0 c-4.88,-4.88,-4.88,-12.8,0,-17.68 c4.88,-4.88,12.8,-4.88,17.68,0 Z M96.34,78.66" fill="rgb(255,0,0)" transform="matrix(1,0,0,-1,900.0,300.0)"/>
 <path d="M0,0 l50,0 l0,50 l-50,0 Z M0,0" fill="rgb(0,0,0)" transform="matrix(1,0,0,-1,0.0,200.0)"/>
 <path d="M76.01,40.66 c9.76,9.76,9.76,25.59,0,35.36 c-9.76,9.76,-25.59,9.76,-35.36,0.0 c-9.76,-9.76,-9.76,-25.59,-0.0,-35.36 c9.76,-9.76,25.59,-9.76,35.36,-0.0 Z M76.01,40.66" fill="rgb(255,0,0)" transform="matrix(1,0,0,-1,0.0,200.0)"/>
 <path d="M96.34,78.66 c4.88,4.88,4.88,12.8,0,17.68 c-4.88,4.88,-12.8,4.88,-17.68,0 c-4.88,-4.88,-4.88,-12.8,0,-17.68 c4.88,-4.88,12.8,-4.88,17.68,0 Z M96.34,78.66" fill="rgb(255,0,0)" transform="matrix(1,0,0,-1,0.0,200.0)"/>
 <path d="M0,0 l50,0 l0,50 l-50,0 Z M0,0" fill="rgb(0,0,0)" transform="matrix(1,0,0,-1,100.0,200.0)"/>
 <path d="M76.01,40.66 c9.76,9.76,9.76,25.59,0,35.36 c-9.76,9.76,-25.59,9.76,-35.36,0.0 c-9.76,-9.76,-9.76,-25.59,-0.0,-35.36 c9.76,-9.76,25.59,-9.76,35.36,-0.0 Z M76.01,40.66" fill="rgb(255,0,0)" transform="matrix(1,0,0,-1,100.0,200.0)"/>
 <path d="M96.34,78.66 c4.88,4.88,4.88,12.8,0,17.68 c-4.88,4.88,-12.8,4.88,-17.68,0 c-4.88,-4.88,-4.88,-12.8,0,-17.68 c4.88,-4.88,12.8,-4.88,17.68,0 Z M96.34,78.66" fill="rgb(255,0,0)" transform="matrix(1,0,0,-1,100.0,200.0)"/>
 <path d="M0,0 l50,0 l0,50 l-50,0 Z M0,0" fill="rgb(0,0,0)" transform="matrix(1,0,0,-1,200.0,200.0)"/>
 <path d="M76.01,40.66 c9.76,9.76,9.76,25.59,0,35.36 c-9.76,9.76,-25.59,9.76,-35.36,0.0 c-9.76,-9.76,-9.76,-25.59,-0.0,-35.36 c9.76,-9.76,25.59,-9.76,35.36,-0.0 Z M76.01,40.66" fill="rgb(255,0,0)" transform="matrix(1,0,0,-1,200.0,200.0)"/>
 <path d="M96.34,78.66 c4.88,4.88,4.88,12.8,0,17.68 c-4.88,4.88,-12.8,4.88,-17.68,0 c-4.88,-4.88,-4.88,-12.8,0,-17.68 c4.88,-4.88,12.8,-4.88,17.68,0 Z M96.34,78.66" fill="rgb(255,0,0)" transform="matrix(1,0,0,-1,200.0,200.0)"/>
 <path d="M0,0 l50,0 l0,50 l-50,0 Z M0,0" fill="rgb(0,0,0)" transform="matrix(1,0,0,-1,300.0,200.0)"/>
 <path d="M76.01,40.66 c9.76,9.76,9.76,25.59,0,35.36 c-9.76,9.76,-25.59,9.76,-35.36,0.0 c-9.76,-9.76,-9.76,-25.59,-0.0,-35.36 c9.76,-9.76,25.59,-9.76,35.36,-0.0 Z M76.01,40.66" fill="rgb(255,0,0)" transform="matrix(1,0,0,-1,300.0,200.0)"/>
 <path d="M96.34,78.66 c4.88,4.88,4.88,12.8,0,17.68 c-4.88,4.88,-12.8,4.88,-17.68,0 c-4.88,-4.88,-4.88,-12.8,0,-17.68 c4.88,-4.88,12.8,-4.88,17.68,0 Z M96.34,78.66" fill="rgb(255,0,0)" transform="matrix(1,0,0,-1,300.0,200.0)"/>
 <path d="M0,0 l50,0 l0,50 l-50,0 Z M0,0" fill="rgb(0,0,0)" transform="matrix(1,0,0,-1,400.0,200.0)"/>
 <path d="M76.01,40.66 c9.76,9.76,9.76,25.59,0,35.36 c-9.76,9.76,-25.59,9.76,-35.36,0.0 c-9.76,-9.76,-9.76,-25.59,-0.0,-35.36 c9.76,-9.76,25.59,-9.76,35.36,-0.0 Z M76.01,40.66" fill="rgb(255,0,0)" transform="matrix(1,0,0,-1,400.0,200.0)"/>
 <path d="M96.34,78.66 c4.88,4.88,4.88,12.8,0,17.68 c-4.88,4.88,-12.8,4.88,-17.68,0 c-4.88,-4.88,-4.88,-12.8,0,-17.68 c4.88,-4.88,12.8,-4.88,17.68,0 Z M96.34,78.66" fill="rgb(255,0,0)" transform="matrix(1,0,0,-1,400.0,200.0)"/>
 <path d="M0,0 l50,0 l0,50 l-50,0 Z M0,0" fill="rgb(0,0,0)" transform="matrix(1,0,0,-1,500.0,200.0)"/>
 <path d="M76.01,40.66 c9.76,9.76,9.76,25.59,0,35.36 c-9.76,9.76,-25.59,9.76,-35.36,0.0 c-9.76,-9.76,-9.76,-25.59,-0.0,-35.36 c9.76,-9.76,25.59,-9.76,35.36,-0.0 Z M76.01,40.66" fill="rgb(255,0,0)" transform="matrix(1,0,0,-1,500.0,200.0)"/>
 <path d="M96.34,78.66 c4.88,4.88,4.88,12.8,0,17.68 c-4.88,4.88,-12.8,4.88,-17.68,0 c-4.88,-4.88,-4.88,-12.8,0,-17.68 c4.88,-4.88,12.8,-4.88,17.68,0 Z M96.34,78.66" fill="rgb(255,0,0)" transform="matrix(1,0,0,-1,500.0,200.0)"/>
 <path d="M0,0 l50,0 l0,50 l-50,0 Z M0,0" fill="rgb(0,0,0)" transform="matrix(1,0,0,-1,600.0,200.0)"/>
 <path d="M76.01,40.66 c9.76,9.76,9.76,25.59,0,35.36 c-9.76,9.76,-25.59,9.76,-35.36,0.0 c-9.76,-9.76,-9.76,-25.59,-0.0,-35.36 c9.76,-9.76,25.59,-9.76,35.36,-0.0 Z M76.01,40.66" fill="rgb(255,0,0)" transform="matrix(1,0,0,-1,600.0,200.0)"/>
 <path d="M96.34,78.66 c4.88,4.88,4.88,12.8,0,17.68 c-4.88,4.88,-12.8,4.88,-17.68,0 c-4.88,-4.88,-4.88,-12.8,0,-17.68 c4.88,-4.88,12.8,-4.88,17.68,0 Z M96.34,78.66" fill="rgb(255,0,0)" transform="matrix(1,0,0,-1,600.0,200.0)"/>
 <path d="M0,0 l50,0 l0,50 l-50,0 Z M0,0" fill="rgb(0,0,0)" transform="matrix(1,0,0,-1,700.0,200.0)"/>
 <path d="M76.01,40.66 c9.76,9.76,9.76,25.59,0,35.36 c-9.76,9.76,-25.59,9.76,-35.36,0.0 c-9.76,-9.76,-9.76,-25.59,-0.0,-35.36 c9.76,-9.76,25.59,-9.76,35.36,-0.0 Z M76.01,40.66" fill="rgb(255,0,0)" transform="matrix(1,0,0,-1,700.0,200.0)"/>
 <path d="M96.34,78.66 c4.88,4.88,4.88,12.8,0,17.68 c-4.88,4.88,-12.8,4.88,-17.68,0 c-4.88,-4.88,-4.88,-12.8,0,-17.68 c4.88,-4.88,12.8,-4.88,17.68,0 Z M96.34,78.66" fill="rgb(255,0,0)" transform="matrix(1,0,0,-1,700.0,200.0)"/>
 <path d="M0,0 l50,0 l0,50 l-50,0 Z M0,0" fill="rgb(0,0,0)" transform="matrix(1,0,0,-1,800.0,200.0)"/>
 <path d="M76.01,40.66 c9.76,9.76,9.76,25.59,0,35.36 c-9.76,9.76,-25.59,9.76,-35.36,0.0 c-9.76,-9.76,-9.76,-25.59,-0.0,-35.36 c9.76,-9.76,25.59,-9.76,35.36,-0.0 Z M76.01,40.66" fill="rgb(255,0,0)" transform="matrix(1,0,0,-1,800.0,200.0)"/>
 <path d="M96.34,78.66 c4.88,4.88,4.88,12.8,0,17.68 c-4.88,4.88,-12.8,4.88,-17.68,0 c-4.88,-4.88,-4.88,-12.8,0,-17.68 c4.88,-4.88,12.8,-4.88,17.68,0 Z M96.34,78.66" fill="rgb(255,0,0)" transform="matrix(1,0,0,-1,800.0,200.0)"/>
 <path d="M0,0 l50,0 l0,50 l-50,0 Z M0,0" fill="rgb(0,0,0)" transform="matrix(1,0,0,-1,900.0,200.0)"/>
 <path d="M76.01,40.66 c9.76,9.76,9.76,25.59,0,35.36 c-9.76,9.76,-25.59,9.76,-35.36,0.0 c-9.76,-9.76,-9.76,-25.59,-0.0,-35.36 c9.76,-9.76,25.59,-9.76,35.36,-0.0 Z M76.01,40.66" fill="rgb(255,0,0)" transform="matrix(1,0,0,-1,900.0,200.0)"/>
 <path d="M96.34,78.66 c4.88,4.88,4.88,12.8,0,17.68 c-4.88,4.88,-12.8,4.88,-17.68,0 c-4.88,-4.88,-4.88,-12.8,0,-17.68 c4.88,-4.88,12.8,-4.88,17.68,0 Z M96.34,78.66" fill="rgb(255,0,0)" transform="matrix(1,0,0,-1,900.0,200.0)"/>
 <path d="M0,0 l50,0 l0,50 l-50,0 Z M0,0" fill="rgb(0,0,0)" transform="matrix(1,0,0,-1,0.0,100.0)"/>
 <path d="M76.01,40.66 c9.76,9.76,9.76,25.59,0,35.36 c-9.76,9.76,-25.59,9.76,-35.36,0.0 c-9.76,-9.76,-9.76,-25.59,-0.0,-35.36 c9.76,-9.76,25.59,-9.76,35.36,-0.0 Z M76.01,40.66" fill="rgb(255,0,0)" transform="matrix(1,0,0,-1,0.0,100.0)"/>
 <path d="M96.34,78.66 c4.88,4.88,4.88,12.8,0,17.68 c-4.88,4.88,-12.8,4.88,-17.68,0 c-4.88,-4.88,-4.88,-12.8,0,-17.68 c4.88,-4.88,12.8,-4.88,17.68,0 Z M96.34,78.66" fill="rgb(255,0,0)" transform="matrix(1,0,0,-1,0.0,100.0)"/>
 <path d="M0,0 l50,0 l0,50 l-50,0 Z M0,0" fill="rgb(0,0,0)" transform="matrix(1,0,0,-1,100.0,100.0)"/>
 <path d="M76.01,40.66 c9.76,9.76,9.76,25.59,0,35.36 c-9.76,9.76,-25.59,9.76,-35.36,0.0 c-9.76,-9.76,-9.76,-25.59,-0.0,-35.36 c9.76,-9.76,25.59,-9.76,35.36,-0.0 Z M76.01,40.66" fill="rgb(255,0,0)" transform="matrix(1,0,0,-1,100.0,100.0)"/>
 <path d="M96.34,78.66 c4.88,4.88,4.88,12.8,0,17.68 c-4.88,4.88,-12.8,4.88,-17.68,0 c-4.88,-4.88,-4.88,-12.8,0,-17.68 c4.88,-4.88,12.8,-4.88,17.68,0 Z M96.34,78.66" fill="rgb(255,0,0)" transform="matrix(1,0,0,-1,100.0,100.0)"/>
 <path d="M0,0 l50,0 l0,50 l-50,0 Z M0,0" fill="rgb(0,0,0)" transform="matrix(1,0,0,-1,200.0,100.0)"/>
 <path d="M76.01,40.66 c9.76,9.76,9.76,25.59,0,35.36 c-9.76,9.76,-25.59,9.76,-35.36,0.0 c-9.76,-9.76,-9.76,-25.59,-0.0,-35.36 c9.76,-9.76,25.59,-9.76,35.36,-0.0 Z M76.01,40.66" fill="rgb(255,0,0)" transform="matrix(1,0,0,-1,200.0,100.0)"/>
 <path d="M96.34,78.66 c4.88,4.88,4.88,12.8,0,17.68 c-4.88,4.88,-12.8,4.88,-17.68,0 c-4.88,-4.88,-4.88,-12.8,0,-17.68 c4.88,-4.88,12.8,-4.88,17.68,0 Z M96.34,78.66" fill="rgb(255,0,0)" transform="matrix(1,0,0,-1,200.0,100.0)"/>
 <path d="M0,0 l50,0 l0,50 l-50,0 Z M0,0" fill="rgb(0,0,0)" transform="matrix(1,0,0,-1,300.0,100.0)"/>
 <path d="M76.01,40.66 c9.76,9.76,9.76,25.59,0,35.36 c-9.76,9.76,-25.59,9.76,-35.36,0.0 c-9.76,-9.76,-9.76,-25.59,-0.0,-35.36 c9.76,-9.76,25.59,-9.76,35.36,-0.0 Z M76.01,40.66" fill="rgb(255,0,0)" transform="matrix(1,0,0,-1,300.0,100.0)"/>
 <path d="M96.34,78.66 c4.88,4.88,4.88,12.8,0,17.68 c-4.88,4.88,-12.8,4.88,-17.68,0 c-4.88,-4.88,-4.88,-12.8,0,-17.68 c4.88,-4.88,12.8,-4.88,17.68,0 Z M96.34,78.66" fill="rgb(255,0,0)" transform="matrix(1,0,0,-1,300.0,100.0)"/>
 <path d="M0,0 l50,0 l0,50 l-50,0 Z M0,0" fill="rgb(0,0,0)" transform="matrix(1,0,0,-1,400.0,100.0)"/>
 <path d="M76.01,40.66 c9.76,9.76,9.76,25.59,0,35.36 c-9.76,9.76,-25.59,9.76,-35.36,0.0 c-9.76,-9.76,-9.76,-25.59,-0.0,-35.36 c9.76,-9.76,25.59,-9.76,35.36,-0.0 Z M76.01,40.66" fill="rgb(255,0,0)" transform="matrix(1,0,0,-1,400.0,100.0)"/>
 <path d="M96.34,78.66 c4.88,4.88,4.88,12.8,0,17.68 c-4.88,4.88,-12.8,4.88,-17.68,0 c-4.88,-4.88,-4.88,-12.8,0,-17.68 c4.88,-4.88,12.8,-4.88,17.68,0 Z M96.34,78.66" fill="rgb(255,0,0)" transform="matrix(1,0,0,-1,400.0,100.0)"/>
 <path d="M0,0 l50,0 l0,50 l-50,0 Z M0,0" fill="rgb(0,0,0)" transform="matrix(1,0,0,-1,500.0,100.0)"/>
 <path d="M76.01,40.66 c9.76,9.76,9.76,25.59,0,35.36 c-9.76,9.76,-25.59,9.76,-35.36,0.0 c-9.76,-9.76,-9.76,-25.59,-0.0,-35.36 c9.76,-9.76,25.59,-9.76,35.36,-0.0 Z M76.01,40.66" fill="rgb(255,0,0)" transform="matrix(1,0,0,-1,500.0,100.0)"/>
 <path d="M96.34,78.66 c4.88,4.88,4.88,12.8,0,17.68 c-4.88,4.88,-12.8,4.88,-17.68,0 c-4.88,-4.88,-4.88,-12.8,0,-17.68 c4.88,-4.88,12.8,-4.88,17.68,0 Z M96.34,78.66" fill="rgb(255,0,0)" transform="matrix(1,0,0,-1,500.0,100.0)"/>
 <path d="M0,0 l50,0 l0,50 l-50,0 Z M0,0" fill="rgb(0,0,0)" transform="matrix(1,0,0,-1,600.0,100.0)"/>
 <path d="M76.01,40.66 c9.76,9.76,9.76,25.59,0,35.36 c-9.76,9.76,-25.59,9.76,-35.36,0.0 c-9.76,-9.76,-9.76,-25.59,-0.0,-35.36 c9.76,-9.76,25.59,-9.76,35.36,-0.0 Z M76.01,40.66" fill="rgb(255,0,0)" transform="matrix(1,0,0,-1,600.0,100.0)"/>
 <path d="M96.34,78.66 c4.88,4.88,4.88,12.8,0,17.68 c-4.88,4.88,-12.8,4.88,-17.68,0 c-4.88,-4.88,-4.88,-12.8,0,-17.68 c4.88,-4.88,12.8,-4.88,17.68,0 Z M96.34,78.66" fill="rgb(255,0,0)" transform="matrix(1,0,0,-1,600.0,100.0)"/>
 <path d="M0,0 l50,0 l0,50 l-50,0 Z M0,0" fill="rgb(0,0,0)" transform="matrix(1,0,0,-1,700.0,100.0)"/>
 <path d="M76.01,40.66 c9.76,9.76,9.76,25.59,0,35.36 c-9.76,9.76,-25.59,9.76,-35.36,0.0 c-9.76,-9.76,-9.76,-25.59,-0.0,-35.36 c9.76,-9.76,25.59,-9.76,35.36,-0.0 Z M76.01,40.66" fill="rgb(255,0,0)" transform="matrix(1,0,0,-1,700.0,100.0)"/>
 <path d="M96.34,78.66 c4.88,4.88,4.88,12.8,0,17.68 c-4.88,4.88,-12.8,4.88,-17.68,0 c-4.88,-4.88,-4.88,-12.8,0,-17.68 c4.88,-4.88,12.8,-4.88,17.68,0 Z M96.34,78.66" fill="rgb(255,0,0)" transform="matrix(1,0,0,-1,700.0,100.0)"/>
 <path d="M0,0 l50,0 l0,50 l-50,0 Z M0,0" fill="rgb(0,0,0)" transform="matrix(1,0,0,-1,800.0,100.0)"/>
 <path d="M76.01,40.66 c9.76,9.76,9.76,25.59,0,35.36 c-9.76,9.76,-25.59,9.76,-35.36,0.0 c-9.76,-9.76,-9.76,-25.59,-0.0,-35.36 c9.76,-9.76,25.59,-9.76,35.36,-0.0 Z M76.01,40.66" fill="rgb(255,0,0)" transform="matrix(1,0,0,-1,800.0,100.0)"/>
 <path d="M96.34,78.66 c4.88,4.88,4.88,12.8,0,17.68 c-4.88,4.88,-12.8,4.88,-17.68,0 c-4.88,-4.88,-4.88,-12.8,0,-17.68 c4.88,-4.88,12.8,-4.88,17.68,0 Z M96.34,78.66" fill="rgb(255,0,0)" transform="matrix(1,0,0,-1,800.0,100.0)"/>
 <path d="M0,0 l50,0 l0,50 l-50,0 Z M0,0" fill="rgb(0,0,0)" transform="matrix(1,0,0,-1,900.0,100.0)"/>
 <path d="M76.01,40.66 c9.76,9.76,9.76,25.59,0,35.36 c-9.76,9.76,-25.59,9.76,-35.36,0.0 c-9.76,-9.76,-9.76,-25.59,-0.0,-35.36 c9.76,-9.76,25.59,-9.76,35.36,-0.0 Z M76.01,40.66" fill="rgb(255,0,0)" transform="matrix(1,0,0,-1,900.0,100.0)"/>
 <path d="M96.34,78.66 c4.88,4.88,4.88,12.8,0,17.68 c-4.88,4.88,-12.8,4.88,-17.68,0 c-4.88,-4.88,-4.88,-12.8,0,-17.68 c4.88,-4.88,12.8,-4.88,17.68,0 Z M96.34,78.66" fill="rgb(255,0,0)" transform="matrix(1,0,0,-1,900.0,100.0)"/>
</svg>